<svg width="36" height="33" viewBox="0 0 36 33" fill="none" xmlns="http://www.w3.org/2000/svg">
<path d="M34.25 30.5H33V19.25C33 19.2422 33 19.2359 33 19.2281C33 19.2203 33 19.1828 33 19.1609C33 19.1391 33 19.1172 33 19.0969C33.0008 19.0891 33.0008 19.0812 33 19.0734L30.6562 2.64688C30.5684 2.04946 30.2683 1.50368 29.8109 1.10943C29.3535 0.715175 28.7695 0.498834 28.1656 0.500005H25.3344C24.7332 0.502579 24.1529 0.720611 23.6988 1.11452C23.2447 1.50844 22.9469 2.05212 22.8594 2.64688L21.0531 15.2891L15 10.75C14.8143 10.6107 14.5935 10.5259 14.3623 10.5051C14.1311 10.4842 13.8986 10.5282 13.691 10.632C13.4834 10.7358 13.3087 10.8954 13.1867 11.0928C13.0646 11.2903 13 11.5179 13 11.75V16.75L5 10.75C4.81429 10.6107 4.59346 10.5259 4.36226 10.5051C4.13106 10.4842 3.89862 10.5282 3.69098 10.632C3.48335 10.7358 3.30873 10.8954 3.18669 11.0928C3.06464 11.2903 3 11.5179 3 11.75V30.5H1.75C1.41848 30.5 1.10054 30.6317 0.866116 30.8661C0.631696 31.1005 0.5 31.4185 0.5 31.75C0.5 32.0815 0.631696 32.3995 0.866116 32.6339C1.10054 32.8683 1.41848 33 1.75 33H34.25C34.5815 33 34.8995 32.8683 35.1339 32.6339C35.3683 32.3995 35.5 32.0815 35.5 31.75C35.5 31.4185 35.3683 31.1005 35.1339 30.8661C34.8995 30.6317 34.5815 30.5 34.25 30.5ZM14.875 26.75H10.5C10.1685 26.75 9.85054 26.6183 9.61612 26.3839C9.3817 26.1495 9.25 25.8315 9.25 25.5C9.25 25.1685 9.3817 24.8505 9.61612 24.6161C9.85054 24.3817 10.1685 24.25 10.5 24.25H14.875C15.2065 24.25 15.5245 24.3817 15.7589 24.6161C15.9933 24.8505 16.125 25.1685 16.125 25.5C16.125 25.8315 15.9933 26.1495 15.7589 26.3839C15.5245 26.6183 15.2065 26.75 14.875 26.75ZM25.5 26.75H21.125C20.7935 26.75 20.4755 26.6183 20.2411 26.3839C20.0067 26.1495 19.875 25.8315 19.875 25.5C19.875 25.1685 20.0067 24.8505 20.2411 24.6161C20.4755 24.3817 20.7935 24.25 21.125 24.25H25.5C25.8315 24.25 26.1495 24.3817 26.3839 24.6161C26.6183 24.8505 26.75 25.1685 26.75 25.5C26.75 25.8315 26.6183 26.1495 26.3839 26.3839C26.1495 26.6183 25.8315 26.75 25.5 26.75ZM24.6672 18L23.3344 17L25.3344 3H28.1656L30.3094 18H24.6672Z" fill="#1769B2"/>
</svg>
