<svg width="40" height="40" viewBox="0 0 40 40" fill="none" xmlns="http://www.w3.org/2000/svg">
<path d="M36.25 32.5C36.25 32.8315 36.1183 33.1495 35.8839 33.3839C35.6495 33.6183 35.3315 33.75 35 33.75H5C4.66848 33.75 4.35054 33.6183 4.11612 33.3839C3.8817 33.1495 3.75 32.8315 3.75 32.5C3.75 32.1685 3.8817 31.8505 4.11612 31.6161C4.35054 31.3817 4.66848 31.25 5 31.25H6.25V21.25C6.25 20.9185 6.3817 20.6005 6.61612 20.3661C6.85054 20.1317 7.16848 20 7.5 20H11.25C11.5815 20 11.8995 20.1317 12.1339 20.3661C12.3683 20.6005 12.5 20.9185 12.5 21.25V31.25H15V13.75C15 13.4185 15.1317 13.1005 15.3661 12.8661C15.6005 12.6317 15.9185 12.5 16.25 12.5H21.25C21.5815 12.5 21.8995 12.6317 22.1339 12.8661C22.3683 13.1005 22.5 13.4185 22.5 13.75V31.25H25V6.25C25 5.91848 25.1317 5.60054 25.3661 5.36612C25.6005 5.1317 25.9185 5 26.25 5H32.5C32.8315 5 33.1495 5.1317 33.3839 5.36612C33.6183 5.60054 33.75 5.91848 33.75 6.25V31.25H35C35.3315 31.25 35.6495 31.3817 35.8839 31.6161C36.1183 31.8505 36.25 32.1685 36.25 32.5Z" fill="#1769B2"/>
</svg>
