<svg width="134" height="145" viewBox="0 0 134 145" fill="none" xmlns="http://www.w3.org/2000/svg">
<path d="M93.8125 56.125C93.8125 57.4345 93.2923 58.6904 92.3663 59.6163C91.4404 60.5423 90.1845 61.0625 88.875 61.0625H69.125C67.8155 61.0625 66.5596 60.5423 65.6337 59.6163C64.7077 58.6904 64.1875 57.4345 64.1875 56.125C64.1875 54.8155 64.7077 53.5596 65.6337 52.6337C66.5596 51.7077 67.8155 51.1875 69.125 51.1875H88.875C90.1845 51.1875 91.4404 51.7077 92.3663 52.6337C93.2923 53.5596 93.8125 54.8155 93.8125 56.125ZM143.188 31.4375V110.438C143.188 113.057 142.147 115.568 140.295 117.42C138.443 119.272 135.932 120.312 133.312 120.312H24.6875C22.0685 120.312 19.5567 119.272 17.7048 117.42C15.8529 115.568 14.8125 113.057 14.8125 110.438V31.4375C14.8125 28.8185 15.8529 26.3067 17.7048 24.4548C19.5567 22.6029 22.0685 21.5625 24.6875 21.5625H49.375V16.625C49.375 12.6965 50.9356 8.92886 53.7135 6.15098C56.4914 3.3731 60.259 1.8125 64.1875 1.8125H93.8125C97.741 1.8125 101.509 3.3731 104.287 6.15098C107.064 8.92886 108.625 12.6965 108.625 16.625V21.5625H133.312C135.932 21.5625 138.443 22.6029 140.295 24.4548C142.147 26.3067 143.188 28.8185 143.188 31.4375ZM59.25 21.5625H98.75V16.625C98.75 15.3155 98.2298 14.0596 97.3038 13.1337C96.3779 12.2077 95.122 11.6875 93.8125 11.6875H64.1875C62.878 11.6875 61.6221 12.2077 60.6962 13.1337C59.7702 14.0596 59.25 15.3155 59.25 16.625V21.5625ZM133.312 57.1187V31.4375H24.6875V57.1187C41.3529 66.1899 60.0257 70.9409 79 70.9375C97.9743 70.9409 116.647 66.1899 133.312 57.1187Z" fill="#122F4F"/>
</svg>
