<svg width="406" height="406" viewBox="0 0 406 406" fill="none" xmlns="http://www.w3.org/2000/svg">
<rect x="0.5" y="0.5" width="405" height="405" rx="19.5" fill="#173E63" fill-opacity="0.15"/>
<rect x="0.5" y="0.5" width="405" height="405" rx="19.5" stroke="#184066"/>
<path opacity="0.2" d="M355.25 101.5V329.875H50.75V76.125H329.875C336.605 76.125 343.059 78.7984 347.818 83.5572C352.577 88.3159 355.25 94.7701 355.25 101.5Z" fill="#173E63"/>
<path d="M364.766 329.875C364.766 332.399 363.763 334.819 361.979 336.604C360.194 338.388 357.774 339.391 355.25 339.391H50.75C48.2263 339.391 45.806 338.388 44.0214 336.604C42.2369 334.819 41.2344 332.399 41.2344 329.875V76.125C41.2344 73.6013 42.2369 71.181 44.0214 69.3964C45.806 67.6119 48.2263 66.6094 50.75 66.6094C53.2737 66.6094 55.694 67.6119 57.4786 69.3964C59.2631 71.181 60.2656 73.6013 60.2656 76.125V256.161L145.526 170.901C147.31 169.119 149.728 168.118 152.25 168.118C154.772 168.118 157.19 169.119 158.974 170.901L203 214.91L294.223 123.703H253.75C251.226 123.703 248.806 122.701 247.021 120.916C245.237 119.132 244.234 116.711 244.234 114.188C244.234 111.664 245.237 109.243 247.021 107.459C248.806 105.674 251.226 104.672 253.75 104.672H317.188C319.711 104.672 322.132 105.674 323.916 107.459C325.701 109.243 326.703 111.664 326.703 114.188V177.625C326.703 180.149 325.701 182.569 323.916 184.354C322.132 186.138 319.711 187.141 317.188 187.141C314.664 187.141 312.243 186.138 310.459 184.354C308.674 182.569 307.672 180.149 307.672 177.625V137.152L209.724 235.099C207.94 236.881 205.522 237.882 203 237.882C200.478 237.882 198.06 236.881 196.276 235.099L152.25 191.09L60.2656 283.074V320.359H355.25C357.774 320.359 360.194 321.362 361.979 323.146C363.763 324.931 364.766 327.351 364.766 329.875Z" fill="#122F4F"/>
<path d="M145.526 170.901L60.2656 256.161V283.074L152.25 191.09L196.276 235.099C198.06 236.881 200.478 237.882 203 237.882C205.522 237.882 207.94 236.881 209.724 235.099L307.672 137.152V177.625C307.672 180.149 308.674 182.569 310.459 184.354C312.243 186.138 314.664 187.141 317.188 187.141C319.711 187.141 322.132 186.138 323.916 184.354C325.701 182.569 326.703 180.149 326.703 177.625V114.188C326.703 111.664 325.701 109.243 323.916 107.459C322.132 105.674 319.711 104.672 317.188 104.672H253.75C251.226 104.672 248.806 105.674 247.021 107.459C245.237 109.243 244.234 111.664 244.234 114.188C244.234 116.711 245.237 119.132 247.021 120.916C248.806 122.701 251.226 123.703 253.75 123.703H294.223L203 214.91L158.974 170.901C157.19 169.119 154.772 168.118 152.25 168.118C149.728 168.118 147.31 169.119 145.526 170.901Z" fill="#2E9DF2"/>
<path d="M342.562 56.5345C342.884 55.6639 344.116 55.6639 344.438 56.5345L354.009 82.4002C354.11 82.6739 354.326 82.8897 354.6 82.991L380.465 92.5621C381.336 92.8843 381.336 94.1157 380.465 94.4379L354.6 104.009C354.326 104.11 354.11 104.326 354.009 104.6L344.438 130.465C344.116 131.336 342.884 131.336 342.562 130.465L332.991 104.6C332.89 104.326 332.674 104.11 332.4 104.009L306.535 94.4379C305.664 94.1157 305.664 92.8843 306.535 92.5621L332.4 82.991C332.674 82.8897 332.89 82.6739 332.991 82.4002L342.562 56.5345Z" fill="#C5FF50"/>
</svg>
