<svg width="583" height="903" viewBox="0 0 583 903" fill="none" xmlns="http://www.w3.org/2000/svg">
<g clip-path="url(#clip0_79_4035)">
<mask id="mask0_79_4035" style="mask-type:alpha" maskUnits="userSpaceOnUse" x="6" y="-627" width="883" height="1544">
<path d="M578.094 906.759L578.094 903.94L580.916 903.94L580.916 902.06L578.094 902.06L578.094 899.241L576.213 899.241L576.213 902.06L573.392 902.06L573.392 903.94L576.213 903.94L576.213 906.759L578.094 906.759Z" fill="#E0F0FE"/>
<path d="M578.099 856.095L578.099 853.262L580.934 853.262L580.934 851.374L578.099 851.374L578.099 848.541L576.209 848.541L576.209 851.374L573.374 851.374L573.374 853.262L576.209 853.262L576.209 856.095L578.099 856.095Z" fill="#E0F0FE"/>
<path d="M578.104 805.434L578.104 802.586L580.954 802.586L580.954 800.687L578.104 800.687L578.104 797.839L576.204 797.839L576.204 800.687L573.354 800.687L573.354 802.586L576.204 802.586L576.204 805.434L578.104 805.434Z" fill="#E0F0FE"/>
<path d="M578.11 754.775L578.11 751.91L580.978 751.91L580.978 749.999L578.11 749.999L578.11 747.133L576.198 747.133L576.198 749.999L573.33 749.999L573.33 751.91L576.198 751.91L576.198 754.775L578.11 754.775Z" fill="#E0F0FE"/>
<path d="M578.116 704.121L578.116 701.234L581.005 701.234L581.005 699.31L578.116 699.31L578.116 696.424L576.191 696.424L576.191 699.31L573.303 699.31L573.303 701.234L576.191 701.234L576.191 704.121L578.116 704.121Z" fill="#E0F0FE"/>
<path d="M578.125 653.471L578.125 650.561L581.038 650.561L581.038 648.62L578.125 648.62L578.125 645.71L576.183 645.71L576.183 648.62L573.27 648.62L573.27 650.561L576.183 650.561L576.183 653.471L578.125 653.471Z" fill="#E0F0FE"/>
<path d="M578.134 602.828L578.134 599.888L581.076 599.888L581.076 597.929L578.134 597.929L578.134 594.989L576.173 594.989L576.173 597.929L573.231 597.929L573.231 599.888L576.173 599.888L576.173 602.828L578.134 602.828Z" fill="#E0F0FE"/>
<path d="M578.146 552.193L578.146 549.218L581.124 549.218L581.124 547.235L578.146 547.235L578.146 544.26L576.161 544.26L576.161 547.235L573.184 547.235L573.184 549.218L576.161 549.218L576.161 552.193L578.146 552.193Z" fill="#E0F0FE"/>
<path d="M578.161 501.57L578.161 498.551L581.182 498.551L581.182 496.538L578.161 496.538L578.161 493.519L576.147 493.519L576.147 496.538L573.125 496.538L573.125 498.551L576.147 498.551L576.147 501.57L578.161 501.57Z" fill="#E0F0FE"/>
<path d="M578.18 450.963L578.18 447.888L581.257 447.888L581.257 445.838L578.18 445.838L578.18 442.763L576.128 442.763L576.128 445.838L573.051 445.838L573.051 447.888L576.128 447.888L576.128 450.963L578.18 450.963Z" fill="#E0F0FE"/>
<path d="M578.204 400.378L578.204 397.23L581.354 397.23L581.354 395.132L578.204 395.132L578.204 391.984L576.104 391.984L576.104 395.132L572.954 395.132L572.954 397.23L576.104 397.23L576.104 400.378L578.204 400.378Z" fill="#E0F0FE"/>
<path d="M578.237 349.826L578.237 346.581L581.484 346.581L581.484 344.417L578.237 344.417L578.237 341.172L576.071 341.172L576.071 344.417L572.823 344.417L572.823 346.581L576.071 346.581L576.071 349.826L578.237 349.826Z" fill="#E0F0FE"/>
<path d="M578.282 299.326L578.282 295.944L581.666 295.944L581.666 293.69L578.282 293.69L578.282 290.308L576.026 290.308L576.026 293.69L572.642 293.69L572.642 295.944L576.026 295.944L576.026 299.326L578.282 299.326Z" fill="#E0F0FE"/>
<path d="M578.347 248.904L578.347 245.327L581.926 245.327L581.926 242.943L578.347 242.943L578.347 239.367L575.961 239.367L575.961 242.943L572.381 242.943L572.381 245.327L575.961 245.327L575.961 248.904L578.347 248.904Z" fill="#E0F0FE"/>
<path d="M578.44 198.596L578.44 194.739L582.3 194.739L582.3 192.168L578.44 192.168L578.44 188.311L575.867 188.311L575.867 192.168L572.007 192.168L572.007 194.739L575.867 194.739L575.867 198.596L578.44 198.596Z" fill="#E0F0FE"/>
<path d="M578.566 148.417L578.566 144.183L582.804 144.183L582.804 141.36L578.566 141.36L578.566 137.126L575.741 137.126L575.741 141.36L571.504 141.36L571.504 144.183L575.741 144.183L575.741 148.417L578.566 148.417Z" fill="#E0F0FE"/>
<path d="M578.707 98.2974L578.707 93.6415L583.366 93.6415L583.366 90.5376L578.707 90.5376L578.707 85.8817L575.601 85.8817L575.601 90.5376L570.941 90.5376L570.941 93.6415L575.601 93.6415L575.601 98.2974L578.707 98.2974Z" fill="#E0F0FE"/>
<path d="M578.83 48.1064L578.83 43.0823L583.857 43.0823L583.857 39.7329L578.83 39.7329L578.83 34.7088L575.478 34.7088L575.478 39.7329L570.45 39.7329L570.45 43.0823L575.478 43.0823L575.478 48.1064L578.83 48.1064Z" fill="#E0F0FE"/>
<path d="M527.351 906.662L527.351 903.915L530.099 903.915L530.099 902.084L527.351 902.084L527.351 899.338L525.518 899.338L525.518 902.084L522.77 902.084L522.77 903.915L525.518 903.915L525.518 906.662L527.351 906.662Z" fill="#E0F0FE"/>
<path d="M527.353 855.991L527.353 853.236L530.11 853.236L530.11 851.4L527.353 851.4L527.353 848.645L525.515 848.645L525.515 851.4L522.758 851.4L522.758 853.236L525.515 853.236L525.515 855.991L527.353 855.991Z" fill="#E0F0FE"/>
<path d="M527.357 805.323L527.357 802.558L530.124 802.558L530.124 800.715L527.357 800.715L527.357 797.95L525.512 797.95L525.512 800.715L522.745 800.715L522.745 802.558L525.512 802.558L525.512 805.323L527.357 805.323Z" fill="#E0F0FE"/>
<path d="M527.36 754.656L527.36 751.88L530.139 751.88L530.139 750.029L527.36 750.029L527.36 747.253L525.508 747.253L525.508 750.029L522.73 750.029L522.73 751.88L525.508 751.88L525.508 754.656L527.36 754.656Z" fill="#E0F0FE"/>
<path d="M527.365 703.992L527.365 701.202L530.156 701.202L530.156 699.343L527.365 699.343L527.365 696.553L525.503 696.553L525.503 699.343L522.712 699.343L522.712 701.202L525.503 701.202L525.503 703.992L527.365 703.992Z" fill="#E0F0FE"/>
<path d="M527.37 653.331L527.37 650.526L530.178 650.526L530.178 648.655L527.37 648.655L527.37 645.85L525.499 645.85L525.499 648.655L522.691 648.655L522.691 650.526L525.499 650.526L525.499 653.331L527.37 653.331Z" fill="#E0F0FE"/>
<path d="M527.377 602.675L527.377 599.85L530.203 599.85L530.203 597.967L527.377 597.967L527.377 595.143L525.492 595.143L525.492 597.967L522.665 597.967L522.665 599.85L525.492 599.85L525.492 602.675L527.377 602.675Z" fill="#E0F0FE"/>
<path d="M527.384 552.024L527.384 549.176L530.234 549.176L530.234 547.277L527.384 547.277L527.384 544.429L525.484 544.429L525.484 547.277L522.634 547.277L522.634 549.176L525.484 549.176L525.484 552.024L527.384 552.024Z" fill="#E0F0FE"/>
<path d="M527.394 501.381L527.394 498.504L530.273 498.504L530.273 496.586L527.394 496.586L527.394 493.708L525.474 493.708L525.474 496.586L522.595 496.586L522.595 498.504L525.474 498.504L525.474 501.381L527.394 501.381Z" fill="#E0F0FE"/>
<path d="M527.407 450.75L527.407 447.835L530.325 447.835L530.325 445.891L527.407 445.891L527.407 442.976L525.462 442.976L525.462 445.891L522.544 445.891L522.544 447.835L525.462 447.835L525.462 450.75L527.407 450.75Z" fill="#E0F0FE"/>
<path d="M527.424 400.136L527.424 397.17L530.393 397.17L530.393 395.192L527.424 395.192L527.424 392.226L525.445 392.226L525.445 395.192L522.476 395.192L522.476 397.17L525.445 397.17L525.445 400.136L527.424 400.136Z" fill="#E0F0FE"/>
<path d="M527.448 349.55L527.448 346.512L530.488 346.512L530.488 344.486L527.448 344.486L527.448 341.448L525.421 341.448L525.421 344.486L522.38 344.486L522.38 346.512L525.421 346.512L525.421 349.55L527.448 349.55Z" fill="#E0F0FE"/>
<path d="M527.483 299.01L527.483 295.865L530.63 295.865L530.63 293.769L527.483 293.769L527.483 290.625L525.386 290.625L525.386 293.769L522.239 293.769L522.239 295.865L525.386 295.865L525.386 299.01L527.483 299.01Z" fill="#E0F0FE"/>
<path d="M527.54 248.555L527.54 245.24L530.857 245.24L530.857 243.03L527.54 243.03L527.54 239.716L525.329 239.716L525.329 243.03L522.012 243.03L522.012 245.24L525.329 245.24L525.329 248.555L527.54 248.555Z" fill="#E0F0FE"/>
<path d="M527.639 198.268L527.639 194.657L531.252 194.657L531.252 192.25L527.639 192.25L527.639 188.639L525.23 188.639L525.23 192.25L521.616 192.25L521.616 194.657L525.23 194.657L525.23 198.268L527.639 198.268Z" fill="#E0F0FE"/>
<path d="M527.811 148.273L527.811 144.147L531.94 144.147L531.94 141.396L527.811 141.396L527.811 137.27L525.058 137.27L525.058 141.396L520.929 141.396L520.929 144.147L525.058 144.147L525.058 148.273L527.811 148.273Z" fill="#E0F0FE"/>
<path d="M528.031 98.4707L528.031 93.6848L532.82 93.6848L532.82 90.4943L528.031 90.4943L528.031 85.7084L524.838 85.7084L524.838 90.4943L520.049 90.4943L520.049 93.6848L524.838 93.6848L524.838 98.4707L528.031 98.4707Z" fill="#E0F0FE"/>
<path d="M528.194 48.4425L528.194 43.1664L533.474 43.1664L533.474 39.649L528.194 39.649L528.194 34.373L524.674 34.373L524.674 39.649L519.394 39.649L519.394 43.1664L524.674 43.1664L524.674 48.4425L528.194 48.4425Z" fill="#E0F0FE"/>
<path d="M476.606 906.563L476.606 903.891L479.281 903.891L479.281 902.109L476.606 902.109L476.606 899.436L474.823 899.436L474.823 902.109L472.148 902.109L472.148 903.891L474.823 903.891L474.823 906.563L476.606 906.563Z" fill="#E0F0FE"/>
<path d="M476.607 855.886L476.607 853.21L479.286 853.21L479.286 851.426L476.607 851.426L476.607 848.75L474.822 848.75L474.822 851.426L472.144 851.426L472.144 853.21L474.822 853.21L474.822 855.886L476.607 855.886Z" fill="#E0F0FE"/>
<path d="M476.609 805.21L476.609 802.53L479.291 802.53L479.291 800.743L476.609 800.743L476.609 798.063L474.821 798.063L474.821 800.743L472.138 800.743L472.138 802.53L474.821 802.53L474.821 805.21L476.609 805.21Z" fill="#E0F0FE"/>
<path d="M476.61 754.534L476.61 751.849L479.297 751.849L479.297 750.059L476.61 750.059L476.61 747.374L474.819 747.374L474.819 750.059L472.132 750.059L472.132 751.849L474.819 751.849L474.819 754.534L476.61 754.534Z" fill="#E0F0FE"/>
<path d="M476.612 703.86L476.612 701.169L479.305 701.169L479.305 699.376L476.612 699.376L476.612 696.685L474.817 696.685L474.817 699.376L472.125 699.376L472.125 701.169L474.817 701.169L474.817 703.86L476.612 703.86Z" fill="#E0F0FE"/>
<path d="M476.614 653.187L476.614 650.49L479.313 650.49L479.313 648.691L476.614 648.691L476.614 645.994L474.815 645.994L474.815 648.691L472.116 648.691L472.116 650.49L474.815 650.49L474.815 653.187L476.614 653.187Z" fill="#E0F0FE"/>
<path d="M476.617 602.515L476.617 599.81L479.324 599.81L479.324 598.007L476.617 598.007L476.617 595.302L474.812 595.302L474.812 598.007L472.105 598.007L472.105 599.81L474.812 599.81L474.812 602.515L476.617 602.515Z" fill="#E0F0FE"/>
<path d="M476.62 551.847L476.62 549.132L479.337 549.132L479.337 547.322L476.62 547.322L476.62 544.607L474.809 544.607L474.809 547.322L472.092 547.322L472.092 549.132L474.809 549.132L474.809 551.847L476.62 551.847Z" fill="#E0F0FE"/>
<path d="M476.625 501.181L476.625 498.454L479.354 498.454L479.354 496.636L476.625 496.636L476.625 493.908L474.805 493.908L474.805 496.636L472.075 496.636L472.075 498.454L474.805 498.454L474.805 501.181L476.625 501.181Z" fill="#E0F0FE"/>
<path d="M476.63 450.521L476.63 447.777L479.375 447.777L479.375 445.948L476.63 445.948L476.63 443.205L474.799 443.205L474.799 445.948L472.053 445.948L472.053 447.777L474.799 447.777L474.799 450.521L476.63 450.521Z" fill="#E0F0FE"/>
<path d="M476.637 399.869L476.637 397.103L479.405 397.103L479.405 395.259L476.637 395.259L476.637 392.493L474.792 392.493L474.792 395.259L472.024 395.259L472.024 397.103L474.792 397.103L474.792 399.869L476.637 399.869Z" fill="#E0F0FE"/>
<path d="M476.648 349.23L476.648 346.432L479.448 346.432L479.448 344.566L476.648 344.566L476.648 341.768L474.782 341.768L474.782 344.566L471.981 344.566L471.981 346.432L474.782 346.432L474.782 349.23L476.648 349.23Z" fill="#E0F0FE"/>
<path d="M476.665 298.614L476.665 295.766L479.515 295.766L479.515 293.868L476.665 293.868L476.665 291.02L474.765 291.02L474.765 293.868L471.914 293.868L471.914 295.766L474.765 295.766L474.765 298.614L476.665 298.614Z" fill="#E0F0FE"/>
<path d="M476.694 248.051L476.694 245.114L479.633 245.114L479.633 243.156L476.694 243.156L476.694 240.22L474.735 240.22L474.735 243.156L471.796 243.156L471.796 245.114L474.735 245.114L474.735 248.051L476.694 248.051Z" fill="#E0F0FE"/>
<path d="M476.759 197.629L476.759 194.497L479.893 194.497L479.893 192.41L476.759 192.41L476.759 189.278L474.67 189.278L474.67 192.41L471.537 192.41L471.537 194.497L474.67 194.497L474.67 197.629L476.759 197.629Z" fill="#E0F0FE"/>
<path d="M476.97 147.788L476.97 144.026L480.735 144.026L480.735 141.517L476.97 141.517L476.97 137.755L474.459 137.755L474.459 141.517L470.694 141.517L470.694 144.026L474.459 144.026L474.459 147.788L476.97 147.788Z" fill="#E0F0FE"/>
<path d="M477.449 99.0201L477.449 93.8222L482.65 93.8222L482.65 90.357L477.449 90.357L477.449 85.159L473.981 85.159L473.981 90.357L468.779 90.357L468.779 93.8222L473.981 93.8222L473.981 99.0201L477.449 99.0201Z" fill="#E0F0FE"/>
<path d="M477.631 49.0691L477.631 43.3229L483.382 43.3229L483.382 39.4922L477.631 39.4922L477.631 33.746L473.798 33.746L473.798 39.4922L468.047 39.4922L468.047 43.3229L473.798 43.3229L473.798 49.0691L477.631 49.0691Z" fill="#E0F0FE"/>
<path d="M428.267 916.077L428.267 906.269L438.082 906.269L438.082 899.731L428.267 899.731L428.267 889.923L421.724 889.923L421.724 899.731L411.909 899.731L411.909 906.269L421.724 906.269L421.724 916.077L428.267 916.077Z" fill="#E0F0FE"/>
<path d="M428.266 865.393L428.266 855.587L438.079 855.587L438.079 849.049L428.266 849.049L428.266 839.244L421.724 839.244L421.724 849.049L411.911 849.049L411.911 855.587L421.724 855.587L421.724 865.393L428.266 865.393Z" fill="#E0F0FE"/>
<path d="M428.266 814.708L428.266 804.904L438.077 804.904L438.077 798.368L428.266 798.368L428.266 788.564L421.725 788.564L421.725 798.368L411.914 798.368L411.914 804.904L421.725 804.904L421.725 814.708L428.266 814.708Z" fill="#E0F0FE"/>
<path d="M428.265 764.023L428.265 754.221L438.074 754.221L438.074 747.687L428.265 747.687L428.265 737.885L421.726 737.885L421.726 747.687L411.916 747.687L411.916 754.221L421.726 754.221L421.726 764.023L428.265 764.023Z" fill="#E0F0FE"/>
<path d="M428.264 713.338L428.264 703.539L438.071 703.539L438.071 697.006L428.264 697.006L428.264 687.207L421.726 687.207L421.726 697.006L411.92 697.006L411.92 703.539L421.726 703.539L421.726 713.338L428.264 713.338Z" fill="#E0F0FE"/>
<path d="M428.263 662.652L428.263 652.856L438.067 652.856L438.067 646.325L428.263 646.325L428.263 636.528L421.727 636.528L421.727 646.325L411.924 646.325L411.924 652.856L421.727 652.856L421.727 662.652L428.263 662.652Z" fill="#E0F0FE"/>
<path d="M428.262 611.966L428.262 602.173L438.062 602.173L438.062 595.644L428.262 595.644L428.262 585.851L421.728 585.851L421.728 595.644L411.928 595.644L411.928 602.173L421.728 602.173L421.728 611.966L428.262 611.966Z" fill="#E0F0FE"/>
<path d="M428.26 561.278L428.26 551.489L438.056 551.489L438.056 544.964L428.26 544.964L428.26 535.175L421.73 535.175L421.73 544.964L411.934 544.964L411.934 551.489L421.73 551.489L421.73 561.278L428.26 561.278Z" fill="#E0F0FE"/>
<path d="M428.258 510.589L428.258 500.806L438.048 500.806L438.048 494.284L428.258 494.284L428.258 484.501L421.732 484.501L421.732 494.284L411.942 494.284L411.942 500.806L421.732 500.806L421.732 510.589L428.258 510.589Z" fill="#E0F0FE"/>
<path d="M428.256 459.897L428.256 450.121L438.039 450.121L438.039 443.604L428.256 443.604L428.256 433.829L421.734 433.829L421.734 443.604L411.952 443.604L411.952 450.121L421.734 450.121L421.734 459.897L428.256 459.897Z" fill="#E0F0FE"/>
<path d="M428.253 409.201L428.253 399.436L438.025 399.436L438.025 392.926L428.253 392.926L428.253 383.161L421.738 383.161L421.738 392.926L411.965 392.926L411.965 399.436L421.738 399.436L421.738 409.201L428.253 409.201Z" fill="#E0F0FE"/>
<path d="M428.248 358.5L428.248 348.749L438.006 348.749L438.006 342.249L428.248 342.249L428.248 332.498L421.743 332.498L421.743 342.249L411.985 342.249L411.985 348.749L421.743 348.749L421.743 358.5L428.248 358.5Z" fill="#E0F0FE"/>
<path d="M428.24 307.787L428.24 298.06L437.975 298.06L437.975 291.575L428.24 291.575L428.24 281.847L421.75 281.847L421.75 291.575L412.016 291.575L412.016 298.06L421.75 298.06L421.75 307.787L428.24 307.787Z" fill="#E0F0FE"/>
<path d="M428.226 257.05L428.226 247.364L437.919 247.364L437.919 240.907L428.226 240.907L428.226 231.221L421.764 231.221L421.764 240.907L412.071 240.907L412.071 247.364L421.764 247.364L421.764 257.05L428.226 257.05Z" fill="#E0F0FE"/>
<path d="M428.194 206.238L428.194 196.649L437.789 196.649L437.789 190.257L428.194 190.257L428.194 180.669L421.797 180.669L421.797 190.257L412.201 190.257L412.201 196.649L421.797 196.649L421.797 206.238L428.194 206.238Z" fill="#E0F0FE"/>
<path d="M428.043 154.953L428.043 145.817L437.185 145.817L437.185 139.726L428.043 139.726L428.043 130.59L421.947 130.59L421.947 139.726L412.805 139.726L412.805 145.817L421.947 145.817L421.947 154.953L428.043 154.953Z" fill="#E0F0FE"/>
<path d="M427.268 101.175L427.268 94.3608L434.087 94.3608L434.087 89.8182L427.268 89.8182L427.268 83.0043L422.722 83.0043L422.722 89.8182L415.903 89.8182L415.903 94.3608L422.722 94.3608L422.722 101.175L427.268 101.175Z" fill="#E0F0FE"/>
<path d="M427.148 50.011L427.148 43.5585L433.605 43.5585L433.605 39.2568L427.148 39.2568L427.148 32.8043L422.843 32.8043L422.843 39.2568L416.386 39.2568L416.386 43.5585L422.843 43.5585L422.843 50.011L427.148 50.011Z" fill="#E0F0FE"/>
<path d="M377.522 915.978L377.522 906.245L387.263 906.245L387.263 899.756L377.522 899.756L377.522 890.022L371.029 890.022L371.029 899.756L361.288 899.756L361.288 906.245L371.029 906.245L371.029 915.978L377.522 915.978Z" fill="#E0F0FE"/>
<path d="M377.52 865.287L377.52 855.56L387.254 855.56L387.254 849.076L377.52 849.076L377.52 839.349L371.031 839.349L371.031 849.076L361.297 849.076L361.297 855.56L371.031 855.56L371.031 865.287L377.52 865.287Z" fill="#E0F0FE"/>
<path d="M377.518 814.595L377.518 804.876L387.244 804.876L387.244 798.396L377.518 798.396L377.518 788.677L371.034 788.677L371.034 798.396L361.307 798.396L361.307 804.876L371.034 804.876L371.034 814.595L377.518 814.595Z" fill="#E0F0FE"/>
<path d="M377.514 763.901L377.514 754.191L387.232 754.191L387.232 747.718L377.514 747.718L377.514 738.007L371.036 738.007L371.036 747.718L361.319 747.718L361.319 754.191L371.036 754.191L371.036 763.901L377.514 763.901Z" fill="#E0F0FE"/>
<path d="M377.511 713.206L377.511 703.506L387.218 703.506L387.218 697.039L377.511 697.039L377.511 687.339L371.04 687.339L371.04 697.039L361.333 697.039L361.333 703.506L371.04 703.506L371.04 713.206L377.511 713.206Z" fill="#E0F0FE"/>
<path d="M377.507 662.507L377.507 652.82L387.202 652.82L387.202 646.361L377.507 646.361L377.507 636.674L371.044 636.674L371.044 646.361L361.349 646.361L361.349 652.82L371.044 652.82L371.044 662.507L377.507 662.507Z" fill="#E0F0FE"/>
<path d="M377.502 611.805L377.502 602.133L387.182 602.133L387.182 595.684L377.502 595.684L377.502 586.012L371.049 586.012L371.049 595.684L361.369 595.684L361.369 602.133L371.049 602.133L371.049 611.805L377.502 611.805Z" fill="#E0F0FE"/>
<path d="M377.496 561.099L377.496 551.445L387.157 551.445L387.157 545.009L377.496 545.009L377.496 535.355L371.055 535.355L371.055 545.009L361.394 545.009L361.394 551.445L371.055 551.445L371.055 561.099L377.496 561.099Z" fill="#E0F0FE"/>
<path d="M377.488 510.386L377.488 500.755L387.126 500.755L387.126 494.335L377.488 494.335L377.488 484.704L371.063 484.704L371.063 494.335L361.425 494.335L361.425 500.755L371.063 500.755L371.063 510.386L377.488 510.386Z" fill="#E0F0FE"/>
<path d="M377.478 459.664L377.478 450.063L387.086 450.063L387.086 443.663L377.478 443.663L377.478 434.062L371.073 434.062L371.073 443.663L361.465 443.663L361.465 450.063L371.073 450.063L371.073 459.664L377.478 459.664Z" fill="#E0F0FE"/>
<path d="M377.464 408.927L377.464 399.368L387.031 399.368L387.031 392.994L377.464 392.994L377.464 383.435L371.086 383.435L371.086 392.994L361.52 392.994L361.52 399.368L371.086 399.368L371.086 408.927L377.464 408.927Z" fill="#E0F0FE"/>
<path d="M377.445 358.168L377.445 348.666L386.954 348.666L386.954 342.332L377.445 342.332L377.445 332.83L371.106 332.83L371.106 342.332L361.597 342.332L361.597 348.666L371.106 348.666L371.106 358.168L377.445 358.168Z" fill="#E0F0FE"/>
<path d="M377.416 307.369L377.416 297.955L386.837 297.955L386.837 291.679L377.416 291.679L377.416 282.265L371.135 282.265L371.135 291.679L361.715 291.679L361.715 297.955L371.135 297.955L371.135 307.369L377.416 307.369Z" fill="#E0F0FE"/>
<path d="M377.367 256.491L377.367 247.224L386.64 247.224L386.64 241.046L377.367 241.046L377.367 231.78L371.184 231.78L371.184 241.046L361.911 241.046L361.911 247.224L371.184 247.224L371.184 256.491L377.367 256.491Z" fill="#E0F0FE"/>
<path d="M377.273 205.436L377.273 196.449L386.267 196.449L386.267 190.458L377.273 190.458L377.273 181.471L371.278 181.471L371.278 190.458L362.284 190.458L362.284 196.449L371.278 196.449L371.278 205.436L377.273 205.436Z" fill="#E0F0FE"/>
<path d="M377.08 153.98L377.08 145.574L385.493 145.574L385.493 139.969L377.08 139.969L377.08 131.563L371.471 131.563L371.471 139.969L363.059 139.969L363.059 145.574L371.471 145.574L371.471 153.98L377.08 153.98Z" fill="#E0F0FE"/>
<path d="M376.801 102.184L376.801 94.6132L384.378 94.6132L384.378 89.5658L376.801 89.5658L376.801 81.9948L371.75 81.9948L371.75 89.5658L364.174 89.5658L364.174 94.6132L371.75 94.6132L371.75 102.184L376.801 102.184Z" fill="#E0F0FE"/>
<path d="M376.621 50.7819L376.621 43.7513L383.657 43.7513L383.657 39.0641L376.621 39.0641L376.621 32.0335L371.93 32.0335L371.93 39.0641L364.894 39.0641L364.894 43.7513L371.93 43.7513L371.93 50.7819L376.621 50.7819Z" fill="#E0F0FE"/>
<path d="M326.778 915.88L326.778 906.22L336.446 906.22L336.446 899.78L326.778 899.78L326.778 890.12L320.333 890.12L320.333 899.78L310.666 899.78L310.666 906.22L320.333 906.22L320.333 915.88L326.778 915.88Z" fill="#E0F0FE"/>
<path d="M326.774 865.183L326.774 855.534L336.43 855.534L336.43 849.102L326.774 849.102L326.774 839.453L320.337 839.453L320.337 849.102L310.681 849.102L310.681 855.534L320.337 855.534L320.337 865.183L326.774 865.183Z" fill="#E0F0FE"/>
<path d="M326.77 814.483L326.77 804.848L336.413 804.848L336.413 798.425L326.77 798.425L326.77 788.789L320.342 788.789L320.342 798.425L310.699 798.425L310.699 804.848L320.342 804.848L320.342 814.483L326.77 814.483Z" fill="#E0F0FE"/>
<path d="M326.765 763.781L326.765 754.161L336.392 754.161L336.392 747.748L326.765 747.748L326.765 738.128L320.347 738.128L320.347 747.748L310.72 747.748L310.72 754.161L320.347 754.161L320.347 763.781L326.765 763.781Z" fill="#E0F0FE"/>
<path d="M326.759 713.075L326.759 703.473L336.368 703.473L336.368 697.072L326.759 697.072L326.759 687.47L320.353 687.47L320.353 697.072L310.744 697.072L310.744 703.473L320.353 703.473L320.353 713.075L326.759 713.075Z" fill="#E0F0FE"/>
<path d="M326.752 662.365L326.752 652.784L336.34 652.784L336.34 646.397L326.752 646.397L326.752 636.816L320.36 636.816L320.36 646.397L310.772 646.397L310.772 652.784L320.36 652.784L320.36 662.365L326.752 662.365Z" fill="#E0F0FE"/>
<path d="M326.744 611.649L326.744 602.094L336.306 602.094L336.306 595.723L326.744 595.723L326.744 586.168L320.369 586.168L320.369 595.723L310.806 595.723L310.806 602.094L320.369 602.094L320.369 611.649L326.744 611.649Z" fill="#E0F0FE"/>
<path d="M326.733 560.926L326.733 551.402L336.265 551.402L336.265 545.052L326.733 545.052L326.733 535.528L320.379 535.528L320.379 545.052L310.848 545.052L310.848 551.402L320.379 551.402L320.379 560.926L326.733 560.926Z" fill="#E0F0FE"/>
<path d="M326.72 510.192L326.72 500.707L336.213 500.707L336.213 494.383L326.72 494.383L326.72 484.898L320.392 484.898L320.392 494.383L310.9 494.383L310.9 500.707L320.392 500.707L320.392 510.192L326.72 510.192Z" fill="#E0F0FE"/>
<path d="M326.704 459.444L326.704 450.008L336.146 450.008L336.146 443.718L326.704 443.718L326.704 434.282L320.408 434.282L320.408 443.718L310.966 443.718L310.966 450.008L320.408 450.008L320.408 459.444L326.704 459.444Z" fill="#E0F0FE"/>
<path d="M326.682 408.675L326.682 399.304L336.059 399.304L336.059 393.058L326.682 393.058L326.682 383.687L320.43 383.687L320.43 393.058L311.053 393.058L311.053 399.304L320.43 399.304L320.43 408.675L326.682 408.675Z" fill="#E0F0FE"/>
<path d="M326.652 357.874L326.652 348.593L335.94 348.593L335.94 342.405L326.652 342.405L326.652 333.125L320.46 333.125L320.46 342.405L311.172 342.405L311.172 348.593L320.46 348.593L320.46 357.874L326.652 357.874Z" fill="#E0F0FE"/>
<path d="M326.609 307.021L326.609 297.868L335.77 297.868L335.77 291.766L326.609 291.766L326.609 282.613L320.503 282.613L320.503 291.766L311.343 291.766L311.343 297.868L320.503 297.868L320.503 307.021L326.609 307.021Z" fill="#E0F0FE"/>
<path d="M326.546 256.085L326.546 247.123L335.515 247.123L335.515 241.148L326.546 241.148L326.546 232.185L320.566 232.185L320.566 241.148L311.597 241.148L311.597 247.123L320.566 247.123L320.566 256.085L326.546 256.085Z" fill="#E0F0FE"/>
<path d="M326.448 205.014L326.448 196.344L335.125 196.344L335.125 190.563L326.448 190.563L326.448 181.892L320.664 181.892L320.664 190.563L311.986 190.563L311.986 196.344L320.664 196.344L320.664 205.014L326.448 205.014Z" fill="#E0F0FE"/>
<path d="M326.307 153.769L326.307 145.521L334.562 145.521L334.562 140.022L326.307 140.022L326.307 131.774L320.804 131.774L320.804 140.022L312.55 140.022L312.55 145.521L320.804 145.521L320.804 153.769L326.307 153.769Z" fill="#E0F0FE"/>
<path d="M326.144 102.435L326.144 94.676L333.909 94.676L333.909 89.5031L326.144 89.5031L326.144 81.7438L320.967 81.7438L320.967 89.5031L313.202 89.5031L313.202 94.676L320.967 94.676L320.967 102.435L326.144 102.435Z" fill="#E0F0FE"/>
<path d="M326.008 51.2073L326.008 43.8576L333.363 43.8576L333.363 38.9578L326.008 38.9578L326.008 31.6082L321.104 31.6082L321.104 38.9578L313.749 38.9578L313.749 43.8576L321.104 43.8576L321.104 51.2073L326.008 51.2073Z" fill="#E0F0FE"/>
<path d="M325.914 0.15271L325.914 -6.91758L332.99 -6.91758L332.99 -11.631L325.914 -11.631L325.914 -18.7013L321.197 -18.7013L321.197 -11.631L314.122 -11.631L314.122 -6.91758L321.197 -6.91758L321.197 0.15271L325.914 0.15271Z" fill="#E0F0FE"/>
<path d="M276.035 915.784L276.035 906.196L285.63 906.196L285.63 899.804L276.035 899.804L276.035 890.216L269.638 890.216L269.638 899.804L260.042 899.804L260.042 906.196L269.638 906.196L269.638 915.784L276.035 915.784Z" fill="#E0F0FE"/>
<path d="M276.03 865.081L276.03 855.509L285.609 855.509L285.609 849.127L276.03 849.127L276.03 839.555L269.643 839.555L269.643 849.127L260.064 849.127L260.064 855.509L269.643 855.509L269.643 865.081L276.03 865.081Z" fill="#E0F0FE"/>
<path d="M276.023 814.374L276.023 804.821L285.584 804.821L285.584 798.452L276.023 798.452L276.023 788.898L269.649 788.898L269.649 798.452L260.089 798.452L260.089 804.821L269.649 804.821L269.649 814.374L276.023 814.374Z" fill="#E0F0FE"/>
<path d="M276.016 763.664L276.016 754.132L285.556 754.132L285.556 747.777L276.016 747.777L276.016 738.245L269.657 738.245L269.657 747.777L260.117 747.777L260.117 754.132L269.657 754.132L269.657 763.664L276.016 763.664Z" fill="#E0F0FE"/>
<path d="M276.008 712.949L276.008 703.442L285.522 703.442L285.522 697.103L276.008 697.103L276.008 687.596L269.665 687.596L269.665 697.103L260.15 697.103L260.15 703.442L269.665 703.442L269.665 712.949L276.008 712.949Z" fill="#E0F0FE"/>
<path d="M275.998 662.229L275.998 652.75L285.484 652.75L285.484 646.431L275.998 646.431L275.998 636.953L269.675 636.953L269.675 646.431L260.189 646.431L260.189 652.75L269.675 652.75L269.675 662.229L275.998 662.229Z" fill="#E0F0FE"/>
<path d="M275.987 611.5L275.987 602.056L285.438 602.056L285.438 595.761L275.987 595.761L275.987 586.317L269.686 586.317L269.686 595.761L260.235 595.761L260.235 602.056L269.686 602.056L269.686 611.5L275.987 611.5Z" fill="#E0F0FE"/>
<path d="M275.973 560.763L275.973 551.361L285.382 551.361L285.382 545.093L275.973 545.093L275.973 535.691L269.7 535.691L269.7 545.093L260.291 545.093L260.291 551.361L269.7 551.361L269.7 560.763L275.973 560.763Z" fill="#E0F0FE"/>
<path d="M275.956 510.012L275.956 500.662L285.313 500.662L285.313 494.428L275.956 494.428L275.956 485.077L269.717 485.077L269.717 494.428L260.36 494.428L260.36 500.662L269.717 500.662L269.717 510.012L275.956 510.012Z" fill="#E0F0FE"/>
<path d="M275.934 459.245L275.934 449.958L285.228 449.958L285.228 443.767L275.934 443.767L275.934 434.481L269.739 434.481L269.739 443.767L260.445 443.767L260.445 449.958L269.739 449.958L269.739 459.245L275.934 459.245Z" fill="#E0F0FE"/>
<path d="M275.907 408.453L275.907 399.249L285.118 399.249L285.118 393.113L275.907 393.113L275.907 383.909L269.766 383.909L269.766 393.113L260.555 393.113L260.555 399.249L269.766 399.249L269.766 408.453L275.907 408.453Z" fill="#E0F0FE"/>
<path d="M275.871 357.628L275.871 348.531L284.974 348.531L284.974 342.467L275.871 342.467L275.871 333.37L269.802 333.37L269.802 342.467L260.699 342.467L260.699 348.531L269.802 348.531L269.802 357.628L275.871 357.628Z" fill="#E0F0FE"/>
<path d="M275.823 306.754L275.823 297.801L284.782 297.801L284.782 291.833L275.823 291.833L275.823 282.88L269.85 282.88L269.85 291.833L260.89 291.833L260.89 297.801L269.85 297.801L269.85 306.754L275.823 306.754Z" fill="#E0F0FE"/>
<path d="M275.758 255.814L275.758 247.055L284.523 247.055L284.523 241.216L275.758 241.216L275.758 232.457L269.914 232.457L269.914 241.216L261.149 241.216L261.149 247.055L269.914 247.055L269.914 255.814L275.758 255.814Z" fill="#E0F0FE"/>
<path d="M275.672 204.789L275.672 196.287L284.18 196.287L284.18 190.62L275.672 190.62L275.672 182.118L270.001 182.118L270.001 190.62L261.493 190.62L261.493 196.287L270.001 196.287L270.001 204.789L275.672 204.789Z" fill="#E0F0FE"/>
<path d="M275.566 153.682L275.566 145.499L283.755 145.499L283.755 140.044L275.566 140.044L275.566 131.861L270.107 131.861L270.107 140.044L261.918 140.044L261.918 145.499L270.107 145.499L270.107 153.682L275.566 153.682Z" fill="#E0F0FE"/>
<path d="M275.451 102.541L275.451 94.7025L283.296 94.7025L283.296 89.4766L275.451 89.4766L275.451 81.6378L270.222 81.6378L270.222 89.4766L262.377 89.4766L262.377 94.7025L270.222 94.7025L270.222 102.541L275.451 102.541Z" fill="#E0F0FE"/>
<path d="M275.347 51.4415L275.347 43.9162L282.878 43.9162L282.878 38.8993L275.347 38.8993L275.347 31.3739L270.326 31.3739L270.326 38.8993L262.795 38.8993L262.795 43.9162L270.326 43.9162L270.326 51.4415L275.347 51.4415Z" fill="#E0F0FE"/>
<path d="M275.263 0.425537L275.263 -6.84934L282.543 -6.84934L282.543 -11.6991L275.263 -11.6991L275.263 -18.974L270.41 -18.974L270.41 -11.6991L263.13 -11.6991L263.13 -6.84934L270.41 -6.84934L270.41 0.425537L275.263 0.425537Z" fill="#E0F0FE"/>
<path d="M225.292 915.691L225.292 906.173L234.817 906.173L234.817 899.827L225.292 899.827L225.292 890.309L218.942 890.309L218.942 899.827L209.416 899.827L209.416 906.173L218.942 906.173L218.942 915.691L225.292 915.691Z" fill="#E0F0FE"/>
<path d="M225.285 864.982L225.285 855.484L234.79 855.484L234.79 849.152L225.285 849.152L225.285 839.654L218.948 839.654L218.948 849.152L209.443 849.152L209.443 855.484L218.948 855.484L218.948 864.982L225.285 864.982Z" fill="#E0F0FE"/>
<path d="M225.278 814.269L225.278 804.794L234.759 804.794L234.759 798.478L225.278 798.478L225.278 789.003L218.956 789.003L218.956 798.478L209.475 798.478L209.475 804.794L218.956 804.794L218.956 814.269L225.278 814.269Z" fill="#E0F0FE"/>
<path d="M225.269 763.552L225.269 754.104L234.724 754.104L234.724 747.805L225.269 747.805L225.269 738.357L218.965 738.357L218.965 747.805L209.51 747.805L209.51 754.104L218.965 754.104L218.965 763.552L225.269 763.552Z" fill="#E0F0FE"/>
<path d="M225.258 712.829L225.258 703.411L234.683 703.411L234.683 697.133L225.258 697.133L225.258 687.716L218.975 687.716L218.975 697.133L209.551 697.133L209.551 703.411L218.975 703.411L218.975 712.829L225.258 712.829Z" fill="#E0F0FE"/>
<path d="M225.246 662.099L225.246 652.718L234.635 652.718L234.635 646.463L225.246 646.463L225.246 637.082L218.987 637.082L218.987 646.463L209.599 646.463L209.599 652.718L218.987 652.718L218.987 662.099L225.246 662.099Z" fill="#E0F0FE"/>
<path d="M225.232 611.361L225.232 602.022L234.579 602.022L234.579 595.795L225.232 595.795L225.232 586.456L219.001 586.456L219.001 595.795L209.655 595.795L209.655 602.022L219.001 602.022L219.001 611.361L225.232 611.361Z" fill="#E0F0FE"/>
<path d="M225.216 560.612L225.216 551.323L234.512 551.323L234.512 545.13L225.216 545.13L225.216 535.841L219.018 535.841L219.018 545.13L209.722 545.13L209.722 551.323L219.018 551.323L219.018 560.612L225.216 560.612Z" fill="#E0F0FE"/>
<path d="M225.195 509.85L225.195 500.621L234.431 500.621L234.431 494.469L225.195 494.469L225.195 485.24L219.038 485.24L219.038 494.469L209.803 494.469L209.803 500.621L219.038 500.621L219.038 509.85L225.195 509.85Z" fill="#E0F0FE"/>
<path d="M225.171 459.069L225.171 449.914L234.332 449.914L234.332 443.811L225.171 443.811L225.171 434.657L219.063 434.657L219.063 443.811L209.902 443.811L209.902 449.914L219.063 449.914L219.063 459.069L225.171 459.069Z" fill="#E0F0FE"/>
<path d="M225.14 408.264L225.14 399.202L234.209 399.202L234.209 393.16L225.14 393.16L225.14 384.097L219.094 384.097L219.094 393.16L210.025 393.16L210.025 399.202L219.094 399.202L219.094 408.264L225.14 408.264Z" fill="#E0F0FE"/>
<path d="M225.102 357.429L225.102 348.482L234.056 348.482L234.056 342.517L225.102 342.517L225.102 333.569L219.132 333.569L219.132 342.517L210.178 342.517L210.178 348.482L219.132 348.482L219.132 357.429L225.102 357.429Z" fill="#E0F0FE"/>
<path d="M225.053 306.554L225.053 297.751L233.862 297.751L233.862 291.883L225.053 291.883L225.053 283.081L219.181 283.081L219.181 291.883L210.372 291.883L210.372 297.751L219.181 297.751L219.181 306.554L225.053 306.554Z" fill="#E0F0FE"/>
<path d="M224.993 255.63L224.993 247.009L233.62 247.009L233.62 241.262L224.993 241.262L224.993 232.641L219.241 232.641L219.241 241.262L210.614 241.262L210.614 247.009L219.241 247.009L219.241 255.63L224.993 255.63Z" fill="#E0F0FE"/>
<path d="M224.919 204.654L224.919 196.253L233.325 196.253L233.325 190.653L224.919 190.653L224.919 182.253L219.314 182.253L219.314 190.653L210.908 190.653L210.908 196.253L219.314 196.253L219.314 204.654L224.919 204.654Z" fill="#E0F0FE"/>
<path d="M224.835 153.634L224.835 145.487L232.988 145.487L232.988 140.056L224.835 140.056L224.835 131.909L219.399 131.909L219.399 140.056L211.246 140.056L211.246 145.487L219.399 145.487L219.399 153.634L224.835 153.634Z" fill="#E0F0FE"/>
<path d="M224.746 102.599L224.746 94.7169L232.634 94.7169L232.634 89.4621L224.746 89.4621L224.746 81.5799L219.488 81.5799L219.488 89.4621L211.599 89.4621L211.599 94.7169L219.488 94.7169L219.488 102.599L224.746 102.599Z" fill="#E0F0FE"/>
<path d="M224.663 51.5834L224.663 43.9516L232.3 43.9516L232.3 38.8637L224.663 38.8637L224.663 31.2319L219.571 31.2319L219.571 38.8637L211.934 38.8637L211.934 43.9516L219.571 43.9516L219.571 51.5834L224.663 51.5834Z" fill="#E0F0FE"/>
<path d="M224.59 0.612427L224.59 -6.80251L232.011 -6.80251L232.011 -11.7459L224.59 -11.7459L224.59 -19.1609L219.643 -19.1609L219.643 -11.7459L212.223 -11.7459L212.223 -6.80251L219.643 -6.80251L219.643 0.612427L224.59 0.612427Z" fill="#E0F0FE"/>
<path d="M174.55 915.601L174.55 906.15L184.007 906.15L184.007 899.85L174.55 899.85L174.55 890.399L168.245 890.399L168.245 899.85L158.787 899.85L158.787 906.15L168.245 906.15L168.245 915.601L174.55 915.601Z" fill="#E0F0FE"/>
<path d="M174.542 864.887L174.542 855.46L183.975 855.46L183.975 849.176L174.542 849.176L174.542 839.75L168.253 839.75L168.253 849.176L158.819 849.176L158.819 855.46L168.253 855.46L168.253 864.887L174.542 864.887Z" fill="#E0F0FE"/>
<path d="M174.532 814.168L174.532 804.769L183.938 804.769L183.938 798.503L174.532 798.503L174.532 789.104L168.262 789.104L168.262 798.503L158.856 798.503L158.856 804.769L168.262 804.769L168.262 814.168L174.532 814.168Z" fill="#E0F0FE"/>
<path d="M174.522 763.445L174.522 754.077L183.897 754.077L183.897 747.832L174.522 747.832L174.522 738.464L168.272 738.464L168.272 747.832L158.897 747.832L158.897 754.077L168.272 754.077L168.272 763.445L174.522 763.445Z" fill="#E0F0FE"/>
<path d="M174.51 712.715L174.51 703.383L183.85 703.383L183.85 697.162L174.51 697.162L174.51 687.829L168.284 687.829L168.284 697.162L158.945 697.162L158.945 703.383L168.284 703.383L168.284 712.715L174.51 712.715Z" fill="#E0F0FE"/>
<path d="M174.497 661.979L174.497 652.688L183.794 652.688L183.794 646.493L174.497 646.493L174.497 637.202L168.298 637.202L168.298 646.493L159 646.493L159 652.688L168.298 652.688L168.298 661.979L174.497 661.979Z" fill="#E0F0FE"/>
<path d="M174.481 611.233L174.481 601.99L183.73 601.99L183.73 595.828L174.481 595.828L174.481 586.585L168.314 586.585L168.314 595.828L159.064 595.828L159.064 601.99L168.314 601.99L168.314 611.233L174.481 611.233Z" fill="#E0F0FE"/>
<path d="M174.462 560.476L174.462 551.289L183.655 551.289L183.655 545.164L174.462 545.164L174.462 535.978L168.333 535.978L168.333 545.164L159.139 545.164L159.139 551.289L168.333 551.289L168.333 560.476L174.462 560.476Z" fill="#E0F0FE"/>
<path d="M174.44 509.705L174.44 500.585L183.566 500.585L183.566 494.505L174.44 494.505L174.44 485.385L168.355 485.385L168.355 494.505L159.229 494.505L159.229 500.585L168.355 500.585L168.355 509.705L174.44 509.705Z" fill="#E0F0FE"/>
<path d="M174.413 458.916L174.413 449.876L183.46 449.876L183.46 443.849L174.413 443.849L174.413 434.809L168.382 434.809L168.382 443.849L159.335 443.849L159.335 449.876L168.382 449.876L168.382 458.916L174.413 458.916Z" fill="#E0F0FE"/>
<path d="M174.381 408.106L174.381 399.162L183.332 399.162L183.332 393.2L174.381 393.2L174.381 384.255L168.414 384.255L168.414 393.2L159.463 393.2L159.463 399.162L168.414 399.162L168.414 408.106L174.381 408.106Z" fill="#E0F0FE"/>
<path d="M174.342 357.27L174.342 348.442L183.177 348.442L183.177 342.556L174.342 342.556L174.342 333.728L168.452 333.728L168.452 342.556L159.618 342.556L159.618 348.442L168.452 348.442L168.452 357.27L174.342 357.27Z" fill="#E0F0FE"/>
<path d="M174.296 306.403L174.296 297.714L182.991 297.714L182.991 291.921L174.296 291.921L174.296 283.232L168.499 283.232L168.499 291.921L159.803 291.921L159.803 297.714L168.499 297.714L168.499 306.403L174.296 306.403Z" fill="#E0F0FE"/>
<path d="M174.241 255.5L174.241 246.977L182.771 246.977L182.771 241.294L174.241 241.294L174.241 232.77L168.554 232.77L168.554 241.294L160.024 241.294L160.024 246.977L168.554 246.977L168.554 255.5L174.241 255.5Z" fill="#E0F0FE"/>
<path d="M174.177 204.565L174.177 196.231L182.517 196.231L182.517 190.675L174.177 190.675L174.177 182.342L168.617 182.342L168.617 190.675L160.277 190.675L160.277 196.231L168.617 196.231L168.617 204.565L174.177 204.565Z" fill="#E0F0FE"/>
<path d="M174.107 153.605L174.107 145.48L182.238 145.48L182.238 140.063L174.107 140.063L174.107 131.938L168.687 131.938L168.687 140.063L160.556 140.063L160.556 145.48L168.687 145.48L168.687 153.605L174.107 153.605Z" fill="#E0F0FE"/>
<path d="M174.036 102.636L174.036 94.7261L181.951 94.7261L181.951 89.4531L174.036 89.4531L174.036 81.5436L168.759 81.5436L168.759 89.4531L160.843 89.4531L160.843 94.7261L168.759 94.7261L168.759 102.636L174.036 102.636Z" fill="#E0F0FE"/>
<path d="M173.967 51.6771L173.967 43.975L181.674 43.975L181.674 38.8404L173.967 38.8404L173.967 31.1383L168.828 31.1383L168.828 38.8404L161.12 38.8404L161.12 43.975L168.828 43.975L168.828 51.6771L173.967 51.6771Z" fill="#E0F0FE"/>
<path d="M173.904 0.744873L173.904 -6.76948L181.424 -6.76947L181.424 -11.779L173.904 -11.779L173.904 -19.2934L168.891 -19.2934L168.891 -11.779L161.371 -11.779L161.371 -6.76948L168.891 -6.76948L168.891 0.744873L173.904 0.744873Z" fill="#E0F0FE"/>
<path d="M123.809 915.514L123.809 906.129L133.201 906.129L133.201 899.871L123.809 899.871L123.809 890.486L117.547 890.486L117.547 899.871L108.154 899.871L108.154 906.129L117.547 906.129L117.547 915.514L123.809 915.514Z" fill="#E0F0FE"/>
<path d="M123.799 864.796L123.799 855.438L133.165 855.438L133.165 849.199L123.799 849.199L123.799 839.841L117.556 839.841L117.556 849.199L108.191 849.199L108.191 855.438L117.556 855.438L117.556 864.796L123.799 864.796Z" fill="#E0F0FE"/>
<path d="M123.789 814.073L123.789 804.745L133.123 804.745L133.123 798.527L123.789 798.527L123.789 789.2L117.566 789.2L117.566 798.527L108.232 798.527L108.232 804.745L117.566 804.745L117.566 814.073L123.789 814.073Z" fill="#E0F0FE"/>
<path d="M123.778 763.344L123.778 754.052L133.077 754.052L133.077 747.857L123.778 747.857L123.778 738.565L117.578 738.565L117.578 747.857L108.279 747.857L108.279 754.052L117.578 754.052L117.578 763.344L123.778 763.344Z" fill="#E0F0FE"/>
<path d="M123.764 712.609L123.764 703.357L133.023 703.357L133.023 697.188L123.764 697.188L123.764 687.936L117.591 687.936L117.591 697.188L108.332 697.188L108.332 703.357L117.591 703.357L117.591 712.609L123.764 712.609Z" fill="#E0F0FE"/>
<path d="M123.749 661.867L123.749 652.66L132.963 652.66L132.963 646.521L123.749 646.521L123.749 637.314L117.606 637.314L117.606 646.521L108.392 646.521L108.392 652.66L117.606 652.66L117.606 661.867L123.749 661.867Z" fill="#E0F0FE"/>
<path d="M123.732 611.115L123.732 601.96L132.894 601.96L132.894 595.857L123.732 595.857L123.732 586.702L117.624 586.702L117.624 595.857L108.462 595.857L108.462 601.96L117.624 601.96L117.624 611.115L123.732 611.115Z" fill="#E0F0FE"/>
<path d="M123.711 560.353L123.711 551.258L132.813 551.258L132.813 545.195L123.711 545.195L123.711 536.101L117.644 536.101L117.644 545.195L108.543 545.195L108.543 551.258L117.644 551.258L117.644 560.353L123.711 560.353Z" fill="#E0F0FE"/>
<path d="M123.688 509.577L123.688 500.553L132.719 500.553L132.719 494.537L123.688 494.537L123.688 485.513L117.667 485.513L117.667 494.537L108.637 494.537L108.637 500.553L117.667 500.553L117.667 509.577L123.688 509.577Z" fill="#E0F0FE"/>
<path d="M123.66 458.785L123.66 449.843L132.609 449.843L132.609 443.882L123.66 443.882L123.66 434.94L117.695 434.94L117.695 443.882L108.746 443.882L108.746 449.843L117.695 449.843L117.695 458.785L123.66 458.785Z" fill="#E0F0FE"/>
<path d="M123.628 407.975L123.628 399.129L132.48 399.129L132.48 393.232L123.628 393.232L123.628 384.387L117.727 384.387L117.727 393.232L108.875 393.232L108.875 399.129L117.727 399.129L117.727 407.975L123.628 407.975Z" fill="#E0F0FE"/>
<path d="M123.591 357.143L123.591 348.41L132.33 348.41L132.33 342.588L123.591 342.588L123.591 333.855L117.765 333.855L117.765 342.588L109.025 342.588L109.025 348.41L117.765 348.41L117.765 357.143L123.591 357.143Z" fill="#E0F0FE"/>
<path d="M123.547 306.287L123.547 297.685L132.156 297.685L132.156 291.95L123.547 291.95L123.547 283.348L117.808 283.348L117.808 291.95L109.2 291.95L109.2 297.685L117.808 297.685L117.808 306.287L123.547 306.287Z" fill="#E0F0FE"/>
<path d="M123.497 255.406L123.497 246.953L131.957 246.953L131.957 241.318L123.497 241.318L123.497 232.865L117.858 232.865L117.858 241.318L109.399 241.318L109.399 246.953L117.858 246.953L117.858 255.406L123.497 255.406Z" fill="#E0F0FE"/>
<path d="M123.442 204.503L123.442 196.216L131.735 196.216L131.735 190.691L123.442 190.691L123.442 182.404L117.913 182.404L117.913 190.691L109.62 190.691L109.62 196.216L117.913 196.216L117.913 204.503L123.442 204.503Z" fill="#E0F0FE"/>
<path d="M123.383 153.584L123.383 145.475L131.499 145.475L131.499 140.068L123.383 140.068L123.383 131.959L117.972 131.959L117.972 140.068L109.857 140.068L109.857 145.475L117.972 145.475L117.972 153.584L123.383 153.584Z" fill="#E0F0FE"/>
<path d="M123.322 102.661L123.322 94.7323L131.256 94.7323L131.256 89.4468L123.322 89.4468L123.322 81.5186L118.033 81.5186L118.033 89.4468L110.099 89.4468L110.099 94.7323L118.033 94.7323L118.033 102.661L123.322 102.661Z" fill="#E0F0FE"/>
<path d="M123.264 51.7432L123.264 43.9915L131.021 43.9915L131.021 38.8238L123.264 38.8238L123.264 31.0721L118.092 31.0721L118.092 38.8238L110.335 38.8238L110.335 43.9915L118.092 43.9915L118.092 51.7432L123.264 51.7432Z" fill="#E0F0FE"/>
<path d="M123.209 0.842285L123.209 -6.74513L130.802 -6.74513L130.802 -11.8033L123.209 -11.8033L123.209 -19.3908L118.147 -19.3908L118.147 -11.8033L110.554 -11.8033L110.554 -6.74513L118.147 -6.74513L118.147 0.842285L123.209 0.842285Z" fill="#E0F0FE"/>
<path d="M73.0681 915.431L73.0681 906.108L82.3984 906.108L82.3984 899.892L73.0681 899.892L73.0681 890.569L66.8478 890.569L66.8478 899.892L57.5175 899.892L57.5175 906.108L66.8478 906.108L66.8478 915.431L73.0681 915.431Z" fill="#E0F0FE"/>
<path d="M73.0579 864.709L73.0579 855.416L82.3579 855.416L82.3579 849.22L73.0579 849.22L73.0579 839.927L66.8579 839.927L66.8579 849.22L57.5579 849.22L57.5579 855.416L66.8579 855.416L66.8579 864.709L73.0579 864.709Z" fill="#E0F0FE"/>
<path d="M73.0469 813.982L73.0469 804.723L82.313 804.723L82.313 798.55L73.0469 798.55L73.0469 789.291L66.8694 789.291L66.8694 798.55L57.6033 798.55L57.6033 804.723L66.8694 804.723L66.8694 813.982L73.0469 813.982Z" fill="#E0F0FE"/>
<path d="M73.034 763.249L73.034 754.028L82.2622 754.028L82.2622 747.88L73.034 747.88L73.034 738.659L66.882 738.659L66.882 747.88L57.6538 747.88L57.6538 754.028L66.882 754.028L66.882 763.249L73.034 763.249Z" fill="#E0F0FE"/>
<path d="M73.0197 712.51L73.0197 703.332L82.2051 703.332L82.2051 697.213L73.0197 697.213L73.0197 688.034L66.8962 688.034L66.8962 697.213L57.7108 697.213L57.7108 703.332L66.8962 703.332L66.8962 712.51L73.0197 712.51Z" fill="#E0F0FE"/>
<path d="M73.0037 661.764L73.0037 652.634L82.1406 652.634L82.1406 646.547L73.0037 646.547L73.0037 637.417L66.9125 637.417L66.9125 646.547L57.7756 646.547L57.7756 652.634L66.9125 652.634L66.9125 661.764L73.0037 661.764Z" fill="#E0F0FE"/>
<path d="M72.9856 611.009L72.9856 601.934L82.0674 601.934L82.0674 595.884L72.9856 595.884L72.9856 586.809L66.9311 586.809L66.9311 595.884L57.8494 595.884L57.8494 601.934L66.9311 601.934L66.9311 611.009L72.9856 611.009Z" fill="#E0F0FE"/>
<path d="M72.9646 560.243L72.9646 551.231L81.9834 551.231L81.9834 545.223L72.9646 545.223L72.9646 536.211L66.952 536.211L66.952 545.223L57.9332 545.223L57.9332 551.231L66.952 551.231L66.952 560.243L72.9646 560.243Z" fill="#E0F0FE"/>
<path d="M72.9404 509.465L72.9404 500.525L81.8872 500.525L81.8872 494.565L72.9404 494.565L72.9404 485.625L66.9759 485.625L66.9759 494.565L58.0291 494.565L58.0291 500.525L66.9759 500.525L66.9759 509.465L72.9404 509.465Z" fill="#E0F0FE"/>
<path d="M72.9127 458.673L72.9127 449.815L81.7769 449.815L81.7769 443.91L72.9127 443.91L72.9127 435.053L67.0032 435.053L67.0032 443.91L58.139 443.91L58.139 449.815L67.0032 449.815L67.0032 458.673L72.9127 458.673Z" fill="#E0F0FE"/>
<path d="M72.8813 407.865L72.8813 399.102L81.6509 399.102L81.6509 393.26L72.8813 393.26L72.8813 384.497L67.0348 384.497L67.0348 393.26L58.2652 393.26L58.2652 399.102L67.0348 399.102L67.0348 407.865L72.8813 407.865Z" fill="#E0F0FE"/>
<path d="M72.8454 357.04L72.8454 348.384L81.5073 348.384L81.5073 342.614L72.8454 342.614L72.8454 333.959L67.0708 333.959L67.0708 342.614L58.4089 342.614L58.4089 348.384L67.0708 348.384L67.0708 357.04L72.8454 357.04Z" fill="#E0F0FE"/>
<path d="M72.8049 306.196L72.8049 297.662L81.3452 297.662L81.3452 291.973L72.8049 291.973L72.8049 283.439L67.1113 283.439L67.1113 291.973L58.5711 291.973L58.5711 297.662L67.1113 297.662L67.1113 306.196L72.8049 306.196Z" fill="#E0F0FE"/>
<path d="M72.7602 255.334L72.7602 246.935L81.1655 246.935L81.1655 241.336L72.7602 241.336L72.7602 232.936L67.1567 232.936L67.1567 241.336L58.7513 241.336L58.7513 246.935L67.1567 246.935L67.1567 255.334L72.7602 255.334Z" fill="#E0F0FE"/>
<path d="M72.7109 204.457L72.7109 196.204L80.9697 196.204L80.9697 190.702L72.7109 190.702L72.7109 182.45L67.2051 182.45L67.2051 190.702L58.9462 190.702L58.9462 196.204L67.2051 196.204L67.2051 204.457L72.7109 204.457Z" fill="#E0F0FE"/>
<path d="M72.6596 153.569L72.6596 145.471L80.7642 145.471L80.7642 140.072L72.6596 140.072L72.6596 131.973L67.2565 131.973L67.2565 140.072L59.152 140.072L59.152 145.471L67.2565 145.471L67.2565 153.569L72.6596 153.569Z" fill="#E0F0FE"/>
<path d="M72.6075 102.679L72.6075 94.7368L80.5552 94.7368L80.5552 89.4422L72.6075 89.4422L72.6075 81.5004L67.3089 81.5004L67.3089 89.4422L59.3612 89.4422L59.3612 94.7368L67.3089 94.7368L67.3089 102.679L72.6075 102.679Z" fill="#E0F0FE"/>
<path d="M72.556 51.7921L72.556 44.0038L80.3501 44.0038L80.3501 38.8116L72.556 38.8116L72.556 31.0233L67.3599 31.0233L67.3599 38.8116L59.5658 38.8116L59.5658 44.0038L67.3599 44.0038L67.3599 51.7921L72.556 51.7921Z" fill="#E0F0FE"/>
<path d="M72.5076 0.916382L72.5076 -6.72661L80.1563 -6.72661L80.1563 -11.8219L72.5076 -11.8219L72.5076 -19.4649L67.4085 -19.4649L67.4085 -11.8219L59.7599 -11.8219L59.7599 -6.72661L67.4085 -6.72661L67.4085 0.916382L72.5076 0.916382Z" fill="#E0F0FE"/>
<path d="M22.329 915.352L22.329 906.088L31.6001 906.088L31.6001 899.912L22.329 899.912L22.329 890.648L16.1482 890.648L16.1482 899.912L6.87706 899.912L6.87706 906.088L16.1482 906.088L16.1482 915.352L22.329 915.352Z" fill="#E0F0FE"/>
<path d="M22.3181 864.627L22.3181 855.395L31.5566 855.395L31.5566 849.241L22.3181 849.241L22.3181 840.009L16.1591 840.009L16.1591 849.241L6.9206 849.241L6.9206 855.395L16.1591 855.395L16.1591 864.627L22.3181 864.627Z" fill="#E0F0FE"/>
<path d="M22.306 813.897L22.306 804.701L31.5083 804.701L31.5083 798.571L22.306 798.571L22.306 789.375L16.1711 789.375L16.1711 798.571L6.96887 798.571L6.96887 804.701L16.1711 804.701L16.1711 813.897L22.306 813.897Z" fill="#E0F0FE"/>
<path d="M22.2926 763.161L22.2926 754.006L31.4546 754.006L31.4546 747.903L22.2926 747.903L22.2926 738.747L16.1846 738.747L16.1846 747.903L7.02265 747.903L7.02265 754.006L16.1846 754.006L16.1846 763.161L22.2926 763.161Z" fill="#E0F0FE"/>
<path d="M22.2776 712.419L22.2776 703.309L31.3945 703.309L31.3945 697.236L22.2776 697.236L22.2776 688.126L16.1997 688.126L16.1997 697.236L7.08279 697.236L7.08279 703.309L16.1997 703.309L16.1997 712.419L22.2776 712.419Z" fill="#E0F0FE"/>
<path d="M22.2608 661.67L22.2608 652.61L31.3271 652.61L31.3271 646.571L22.2608 646.571L22.2608 637.511L16.2166 637.511L16.2166 646.571L7.15023 646.571L7.15023 652.61L16.2166 652.61L16.2166 661.67L22.2608 661.67Z" fill="#E0F0FE"/>
<path d="M22.2415 610.912L22.2415 601.91L31.251 601.91L31.251 595.908L22.2415 595.908L22.2415 586.905L16.2351 586.905L16.2351 595.908L7.22564 595.908L7.22564 601.91L16.2351 601.91L16.2351 610.912L22.2415 610.912Z" fill="#E0F0FE"/>
<path d="M22.2205 560.145L22.2205 551.206L31.166 551.206L31.166 545.247L22.2205 545.247L22.2205 536.308L16.2569 536.308L16.2569 545.247L7.31137 545.247L7.31137 551.206L16.2569 551.206L16.2569 560.145L22.2205 560.145Z" fill="#E0F0FE"/>
<path d="M22.1965 509.367L22.1965 500.5L31.0698 500.5L31.0698 494.589L22.1965 494.589L22.1965 485.723L16.281 485.723L16.281 494.589L7.40775 494.589L7.40775 500.5L16.281 500.5L16.281 509.367L22.1965 509.367Z" fill="#E0F0FE"/>
<path d="M22.169 458.577L22.169 449.791L30.9609 449.791L30.9609 443.934L22.169 443.934L22.169 435.149L16.3077 435.149L16.3077 443.934L7.51577 443.934L7.51577 449.791L16.3077 449.791L16.3077 458.577L22.169 458.577Z" fill="#E0F0FE"/>
<path d="M22.1388 407.773L22.1388 399.079L30.8394 399.079L30.8394 393.283L22.1388 393.283L22.1388 384.589L16.3385 384.589L16.3385 393.283L7.6379 393.283L7.6379 399.079L16.3385 399.079L16.3385 407.773L22.1388 407.773Z" fill="#E0F0FE"/>
<path d="M22.1046 356.955L22.1046 348.363L30.7031 348.363L30.7031 342.635L22.1046 342.635L22.1046 334.043L16.3722 334.043L16.3722 342.635L7.77366 342.635L7.77366 348.363L16.3722 348.363L16.3722 356.955L22.1046 356.955Z" fill="#E0F0FE"/>
<path d="M22.0673 306.123L22.0673 297.644L30.5532 297.644L30.5532 291.991L22.0673 291.991L22.0673 283.511L16.4101 283.511L16.4101 291.991L7.92425 291.991L7.92425 297.644L16.4101 297.644L16.4101 306.123L22.0673 306.123Z" fill="#E0F0FE"/>
<path d="M22.0264 255.278L22.0264 246.921L30.3896 246.921L30.3896 241.35L22.0264 241.35L22.0264 232.993L16.451 232.993L16.451 241.35L8.08775 241.35L8.08775 246.921L16.451 246.921L16.451 255.278L22.0264 255.278Z" fill="#E0F0FE"/>
<path d="M21.9825 204.422L21.9825 196.195L30.2148 196.195L30.2148 190.711L21.9825 190.711L21.9825 182.485L16.4943 182.485L16.4943 190.711L8.26191 190.711L8.26191 196.195L16.4943 196.195L16.4943 204.422L21.9825 204.422Z" fill="#E0F0FE"/>
<path d="M21.937 153.558L21.937 145.468L30.0332 145.468L30.0332 140.075L21.937 140.075L21.937 131.985L16.5397 131.985L16.5397 140.075L8.44353 140.075L8.44353 145.468L16.5397 145.468L16.5397 153.558L21.937 153.558Z" fill="#E0F0FE"/>
<path d="M21.891 102.693L21.891 94.7403L29.8491 94.7403L29.8491 89.4388L21.891 89.4388L21.891 81.4867L16.5856 81.4867L16.5856 89.4388L8.62751 89.4388L8.62751 94.7403L16.5856 94.7403L16.5856 102.693L21.891 102.693Z" fill="#E0F0FE"/>
<path d="M21.8462 51.8297L21.8462 44.0132L29.6685 44.0132L29.6685 38.8023L21.8462 38.8023L21.8462 30.9858L16.6313 30.9858L16.6313 38.8023L8.80904 38.8023L8.80904 44.0132L16.6313 44.0132L16.6313 51.8297L21.8462 51.8297Z" fill="#E0F0FE"/>
<path d="M21.8025 0.974365L21.8025 -6.71204L29.4946 -6.71204L29.4946 -11.8364L21.8025 -11.8364L21.8025 -19.5228L16.6743 -19.5228L16.6743 -11.8364L8.98214 -11.8364L8.98214 -6.71204L16.6743 -6.71204L16.6743 0.974365L21.8025 0.974365Z" fill="#E0F0FE"/>
</mask>
<g mask="url(#mask0_79_4035)">
<ellipse cx="429.5" cy="451.5" rx="437.5" ry="415.5" fill="url(#paint0_radial_79_4035)"/>
</g>
</g>
<defs>
<radialGradient id="paint0_radial_79_4035" cx="0" cy="0" r="1" gradientUnits="userSpaceOnUse" gradientTransform="translate(513.5 403) rotate(-180) scale(773.5 773.5)">
<stop stop-color="#E0F0FE"/>
<stop offset="1" stop-color="#E0F0FE" stop-opacity="0"/>
</radialGradient>
<clipPath id="clip0_79_4035">
<rect width="903" height="858" rx="429" transform="matrix(1.19249e-08 -1 -1 -1.19249e-08 858 903)" fill="white"/>
</clipPath>
</defs>
</svg>
