<svg width="28" height="36" viewBox="0 0 28 36" fill="none" xmlns="http://www.w3.org/2000/svg">
<path d="M25.25 33H17.5219C18.8201 31.8408 20.0444 30.6014 21.1875 29.2891C25.4766 24.3563 27.75 19.1562 27.75 14.25C27.75 10.6033 26.3013 7.10591 23.7227 4.52728C21.1441 1.94866 17.6467 0.5 14 0.5C10.3533 0.5 6.85591 1.94866 4.27728 4.52728C1.69866 7.10591 0.25 10.6033 0.25 14.25C0.25 19.1562 2.51719 24.3563 6.8125 29.2891C7.95564 30.6014 9.17992 31.8408 10.4781 33H2.75C2.41848 33 2.10054 33.1317 1.86612 33.3661C1.6317 33.6005 1.5 33.9185 1.5 34.25C1.5 34.5815 1.6317 34.8995 1.86612 35.1339C2.10054 35.3683 2.41848 35.5 2.75 35.5H25.25C25.5815 35.5 25.8995 35.3683 26.1339 35.1339C26.3683 34.8995 26.5 34.5815 26.5 34.25C26.5 33.9185 26.3683 33.6005 26.1339 33.3661C25.8995 33.1317 25.5815 33 25.25 33ZM14 9.25C14.9889 9.25 15.9556 9.54325 16.7779 10.0927C17.6001 10.6421 18.241 11.423 18.6194 12.3366C18.9978 13.2502 19.0969 14.2555 18.9039 15.2255C18.711 16.1954 18.2348 17.0863 17.5355 17.7855C16.8363 18.4848 15.9454 18.961 14.9755 19.1539C14.0055 19.3469 13.0002 19.2478 12.0866 18.8694C11.173 18.491 10.3921 17.8501 9.84265 17.0279C9.29325 16.2056 9 15.2389 9 14.25C9 12.9239 9.52678 11.6521 10.4645 10.7145C11.4021 9.77678 12.6739 9.25 14 9.25Z" fill="#1769B2"/>
</svg>
