<svg width="134" height="145" viewBox="0 0 134 145" fill="none" xmlns="http://www.w3.org/2000/svg">
<path d="M64.1875 105.5C64.1875 106.81 63.6673 108.065 62.7413 108.991C61.8154 109.917 60.5595 110.438 59.25 110.438H49.375C48.0655 110.438 46.8096 109.917 45.8837 108.991C44.9577 108.065 44.4375 106.81 44.4375 105.5C44.4375 104.19 44.9577 102.935 45.8837 102.009C46.8096 101.083 48.0655 100.562 49.375 100.562H59.25C60.5595 100.562 61.8154 101.083 62.7413 102.009C63.6673 102.935 64.1875 104.19 64.1875 105.5ZM108.625 100.562H98.75C97.4405 100.562 96.1846 101.083 95.2587 102.009C94.3327 102.935 93.8125 104.19 93.8125 105.5C93.8125 106.81 94.3327 108.065 95.2587 108.991C96.1846 109.917 97.4405 110.438 98.75 110.438H108.625C109.935 110.438 111.19 109.917 112.116 108.991C113.042 108.065 113.562 106.81 113.562 105.5C113.562 104.19 113.042 102.935 112.116 102.009C111.19 101.083 109.935 100.562 108.625 100.562ZM150.834 62.3709C149.909 63.5048 148.742 64.4187 147.42 65.0463C146.097 65.674 144.651 65.9997 143.187 66H123.437V85.75C127.583 88.8589 130.645 93.1932 132.19 98.139C133.734 103.085 133.684 108.391 132.046 113.307C130.407 118.222 127.263 122.498 123.06 125.528C118.857 128.557 113.806 130.188 108.625 130.188H49.375C44.1935 130.188 39.1434 128.557 34.94 125.528C30.7365 122.498 27.5929 118.222 25.9544 113.307C24.3159 108.391 24.2655 103.085 25.8104 98.139C27.3554 93.1932 30.4173 88.8589 34.5625 85.75V66H14.8125C13.3602 65.9976 11.9262 65.6749 10.6129 65.0549C9.29952 64.4348 8.1391 63.5327 7.21433 62.4129C6.28955 61.293 5.62318 59.9829 5.2627 58.576C4.90222 57.1691 4.85651 55.7 5.12883 54.2734C6.712 46.4478 10.9497 39.4092 17.1251 34.3483C23.3005 29.2874 31.0344 26.515 39.0186 26.5H40.0308C36.7358 23.2882 34.1175 19.449 32.3303 15.209C30.5431 10.9689 29.6233 6.41383 29.625 1.8125C29.625 0.502994 30.1452 -0.752879 31.0712 -1.67884C31.9971 -2.6048 33.253 -3.125 34.5625 -3.125C35.872 -3.125 37.1279 -2.6048 38.0538 -1.67884C38.9798 -0.752879 39.5 0.502994 39.5 1.8125C39.5 8.36003 42.101 14.6394 46.7308 19.2692C51.3606 23.899 57.64 26.5 64.1875 26.5H93.8125C97.0545 26.5 100.265 25.8614 103.26 24.6208C106.255 23.3801 108.977 21.5616 111.269 19.2692C113.562 16.9768 115.38 14.2552 116.621 11.26C117.861 8.26477 118.5 5.05451 118.5 1.8125C118.5 0.502994 119.02 -0.752879 119.946 -1.67884C120.872 -2.6048 122.128 -3.125 123.437 -3.125C124.747 -3.125 126.003 -2.6048 126.929 -1.67884C127.855 -0.752879 128.375 0.502994 128.375 1.8125C128.377 6.41383 127.457 10.9689 125.67 15.209C123.882 19.449 121.264 23.2882 117.969 26.5H118.981C126.966 26.515 134.7 29.2874 140.875 34.3483C147.05 39.4092 151.288 46.4478 152.871 54.2734C153.152 55.6898 153.114 57.1507 152.762 58.5509C152.41 59.9511 151.752 61.2558 150.834 62.3709ZM88.875 63.5312C88.875 64.9961 89.3094 66.428 90.1232 67.6459C90.937 68.8639 92.0937 69.8132 93.447 70.3737C94.8003 70.9343 96.2895 71.081 97.7261 70.7952C99.1628 70.5094 100.482 69.804 101.518 68.7683C102.554 67.7325 103.259 66.4128 103.545 64.9761C103.831 63.5395 103.684 62.0503 103.124 60.697C102.563 59.3437 101.614 58.187 100.396 57.3732C99.178 56.5594 97.7461 56.125 96.2812 56.125C94.317 56.125 92.4332 56.9053 91.0442 58.2942C89.6553 59.6832 88.875 61.567 88.875 63.5312ZM54.3125 63.5312C54.3125 64.9961 54.7469 66.428 55.5607 67.6459C56.3745 68.8639 57.5312 69.8132 58.8845 70.3737C60.2378 70.9343 61.727 71.081 63.1636 70.7952C64.6003 70.5094 65.92 69.804 66.9558 68.7683C67.9915 67.7325 68.6969 66.4128 68.9827 64.9761C69.2685 63.5395 69.1218 62.0503 68.5612 60.697C68.0007 59.3437 67.0514 58.187 65.8334 57.3732C64.6155 56.5594 63.1836 56.125 61.7187 56.125C59.7545 56.125 57.8707 56.9053 56.4817 58.2942C55.0928 59.6832 54.3125 61.567 54.3125 63.5312ZM34.5625 56.125V51.1875C34.554 45.8445 36.2874 40.6443 39.5 36.375H39.0063C33.3178 36.3843 27.8062 38.3533 23.3996 41.9505C18.993 45.5478 15.9604 50.5536 14.8125 56.125H34.5625ZM123.437 105.5C123.437 101.571 121.877 97.8039 119.099 95.026C116.321 92.2481 112.554 90.6875 108.625 90.6875H49.375C45.4465 90.6875 41.6789 92.2481 38.901 95.026C36.1231 97.8039 34.5625 101.571 34.5625 105.5C34.5625 109.429 36.1231 113.196 38.901 115.974C41.6789 118.752 45.4465 120.312 49.375 120.312H108.625C112.554 120.312 116.321 118.752 119.099 115.974C121.877 113.196 123.437 109.429 123.437 105.5ZM143.187 56.125C142.041 50.553 139.008 45.5466 134.602 41.9492C130.195 38.3517 124.683 36.3831 118.994 36.375H118.5C121.713 40.6443 123.446 45.8445 123.437 51.1875V56.125H143.187Z" fill="#122F4F"/>
</svg>
