<svg width="134" height="145" viewBox="0 0 134 145" fill="none" xmlns="http://www.w3.org/2000/svg">
<path d="M153.624 34.9678L141.28 38.9734L148.896 49.4655C149.299 49.9885 149.593 50.5868 149.76 51.2252C149.927 51.8636 149.965 52.529 149.871 53.1821C149.776 53.8353 149.552 54.4629 149.211 55.0279C148.87 55.5929 148.419 56.0839 147.886 56.4717C147.352 56.8596 146.745 57.1364 146.103 57.286C145.46 57.4356 144.794 57.4548 144.143 57.3425C143.493 57.2302 142.872 56.9886 142.317 56.6322C141.761 56.2757 141.283 55.8116 140.91 55.2671L133.312 44.7749L125.696 55.2671C124.912 56.2861 123.761 56.9589 122.489 57.1426C121.216 57.3262 119.922 57.0061 118.882 56.2504C117.841 55.4947 117.137 54.363 116.918 53.0959C116.699 51.8288 116.983 50.5264 117.71 49.4655L125.326 38.9734L112.982 34.9678C111.737 34.5635 110.703 33.6809 110.108 32.5142C109.513 31.3475 109.406 29.9922 109.81 28.7466C110.214 27.5009 111.097 26.4669 112.264 25.8719C113.43 25.277 114.786 25.1699 116.031 25.5742L128.375 29.5859V16.625C128.375 15.3155 128.895 14.0596 129.821 13.1337C130.747 12.2077 132.003 11.6875 133.312 11.6875C134.622 11.6875 135.878 12.2077 136.804 13.1337C137.73 14.0596 138.25 15.3155 138.25 16.625V29.5859L150.594 25.5804C151.839 25.1753 153.195 25.2816 154.362 25.8759C155.53 26.4703 156.413 27.504 156.818 28.7496C157.223 29.9953 157.117 31.3509 156.523 32.5182C155.928 33.6855 154.894 34.5689 153.649 34.974L153.624 34.9678ZM108.625 105.5C108.62 111.442 107.084 117.282 104.164 122.457C101.244 127.632 97.0396 131.967 91.956 135.043C86.8724 138.119 81.0816 139.833 75.1427 140.019C69.2037 140.204 63.3171 138.856 58.0513 136.103C52.7854 133.351 48.3182 129.287 45.0807 124.305C41.8433 119.322 39.945 113.589 39.5692 107.659C39.1934 101.729 40.3527 95.8025 42.9352 90.4512C45.5178 85.0999 49.4363 80.5047 54.3125 77.1094V11.6875C54.3125 6.44947 56.3933 1.42598 60.0971 -2.27786C63.801 -5.9817 68.8245 -8.0625 74.0625 -8.0625C79.3005 -8.0625 84.324 -5.9817 88.0279 -2.27786C91.7317 1.42598 93.8125 6.44947 93.8125 11.6875V77.1094C98.38 80.3043 102.111 84.5523 104.689 89.4941C107.267 94.4359 108.617 99.926 108.625 105.5ZM49.8811 100.562H98.2439C97.5409 97.1416 96.1229 93.908 94.0828 91.0734C92.0428 88.2389 89.4268 85.8674 86.4062 84.1145C85.6555 83.681 85.0321 83.0575 84.5987 82.3067C84.1654 81.5559 83.9373 80.7042 83.9375 79.8373V11.6875C83.9375 9.06849 82.8971 6.55674 81.0452 4.70482C79.1933 2.8529 76.6815 1.8125 74.0625 1.8125C71.4435 1.8125 68.9317 2.8529 67.0798 4.70482C65.2279 6.55674 64.1875 9.06849 64.1875 11.6875V79.8373C64.1877 80.7042 63.9596 81.5559 63.5263 82.3067C63.0929 83.0575 62.4695 83.681 61.7187 84.1145C58.6982 85.8674 56.0822 88.2389 54.0422 91.0734C52.0021 93.908 50.5841 97.1416 49.8811 100.562Z" fill="#122F4F"/>
</svg>
