<svg width="134" height="145" viewBox="0 0 134 145" fill="none" xmlns="http://www.w3.org/2000/svg">
<path d="M139.811 21.8154L80.5615 2.06542C79.5479 1.72754 78.4521 1.72754 77.4385 2.06542L18.1885 21.8154C17.2054 22.1432 16.3503 22.7719 15.7444 23.6127C15.1384 24.4534 14.8124 25.4635 14.8125 26.4999V75.8749C14.8125 77.1844 15.3327 78.4403 16.2587 79.3662C17.1846 80.2922 18.4405 80.8124 19.75 80.8124C21.0595 80.8124 22.3154 80.2922 23.2413 79.3662C24.1673 78.4403 24.6875 77.1844 24.6875 75.8749V33.3507L45.4188 40.257C39.9108 49.1556 38.1593 59.8764 40.5488 70.0653C42.9384 80.2542 49.2737 89.0784 58.1637 94.6003C47.0544 98.9577 37.4509 106.839 30.4273 117.615C30.0621 118.158 29.8083 118.768 29.6809 119.41C29.5535 120.052 29.5549 120.713 29.6851 121.354C29.8153 121.995 30.0717 122.604 30.4393 123.145C30.8069 123.687 31.2785 124.15 31.8265 124.507C32.3746 124.865 32.9883 125.11 33.6318 125.228C34.2754 125.346 34.9361 125.335 35.5754 125.196C36.2147 125.056 36.82 124.791 37.356 124.416C37.892 124.041 38.3481 123.563 38.6977 123.009C47.9987 108.74 62.6877 100.562 79 100.562C95.3123 100.562 110.001 108.74 119.302 123.009C120.027 124.086 121.145 124.834 122.417 125.092C123.688 125.35 125.01 125.097 126.096 124.389C127.183 123.68 127.947 122.572 128.223 121.305C128.499 120.037 128.266 118.712 127.573 117.615C120.549 106.839 110.909 98.9577 99.8363 94.6003C108.718 89.0787 115.047 80.2602 117.436 70.0787C119.825 59.8973 118.079 49.1839 112.581 40.2878L139.811 31.2152C140.795 30.8876 141.65 30.2589 142.256 29.4182C142.862 28.5774 143.189 27.5672 143.189 26.5307C143.189 25.4943 142.862 24.4841 142.256 23.6433C141.65 22.8025 140.795 22.1738 139.811 21.8463V21.8154ZM108.625 61.0624C108.626 65.7459 107.517 70.3631 105.389 74.535C103.26 78.7069 100.173 82.3146 96.3796 85.0623C92.5866 87.8099 88.1963 89.6191 83.5688 90.3414C78.9412 91.0637 74.2084 90.6785 69.7585 89.2175C65.3087 87.7564 61.2686 85.2612 57.9699 81.9364C54.6711 78.6117 52.2077 74.5522 50.7816 70.091C49.3556 65.6298 49.0076 60.8941 49.7662 56.2724C50.5248 51.6506 52.3684 47.2746 55.1457 43.5034L77.4385 50.9096C78.4521 51.2475 79.5479 51.2475 80.5615 50.9096L102.854 43.5034C106.605 48.589 108.628 54.743 108.625 61.0624Z" fill="#122F4F"/>
</svg>
