<svg width="134" height="145" viewBox="0 0 134 145" fill="none" xmlns="http://www.w3.org/2000/svg">
<path d="M143.188 115.375H138.25V70.9375C138.25 70.9067 138.25 70.882 138.25 70.8511C138.25 70.8203 138.25 70.6721 138.25 70.5857C138.25 70.4993 138.25 70.4129 138.25 70.3327C138.253 70.3019 138.253 70.2709 138.25 70.2401L128.992 5.35518C128.645 2.99538 127.46 0.839525 125.653 -0.717767C123.846 -2.27506 121.539 -3.1296 119.154 -3.12498H107.971C105.596 -3.11481 103.304 -2.25358 101.51 -0.697627C99.7165 0.85833 98.5401 3.00587 98.1945 5.35518L91.0598 55.2918L67.15 37.3625C66.4164 36.8123 65.5442 36.4773 64.6309 36.395C63.7177 36.3126 62.7995 36.4862 61.9794 36.8963C61.1592 37.3064 60.4695 37.9367 59.9874 38.7167C59.5053 39.4967 59.25 40.3956 59.25 41.3125V61.0625L27.65 37.3625C26.9164 36.8123 26.0442 36.4773 25.1309 36.395C24.2177 36.3126 23.2995 36.4862 22.4794 36.8963C21.6592 37.3064 20.9695 37.9367 20.4874 38.7167C20.0053 39.4967 19.75 40.3956 19.75 41.3125V115.375H14.8125C13.503 115.375 12.2471 115.895 11.3212 116.821C10.3952 117.747 9.875 119.003 9.875 120.313C9.875 121.622 10.3952 122.878 11.3212 123.804C12.2471 124.73 13.503 125.25 14.8125 125.25H143.188C144.497 125.25 145.753 124.73 146.679 123.804C147.605 122.878 148.125 121.622 148.125 120.313C148.125 119.003 147.605 117.747 146.679 116.821C145.753 115.895 144.497 115.375 143.188 115.375ZM66.6562 100.563H49.375C48.0655 100.563 46.8096 100.042 45.8837 99.1164C44.9577 98.1904 44.4375 96.9345 44.4375 95.625C44.4375 94.3155 44.9577 93.0596 45.8837 92.1337C46.8096 91.2077 48.0655 90.6875 49.375 90.6875H66.6562C67.9658 90.6875 69.2216 91.2077 70.1476 92.1337C71.0736 93.0596 71.5938 94.3155 71.5938 95.625C71.5938 96.9345 71.0736 98.1904 70.1476 99.1164C69.2216 100.042 67.9658 100.563 66.6562 100.563ZM108.625 100.563H91.3438C90.0342 100.563 88.7784 100.042 87.8524 99.1164C86.9264 98.1904 86.4062 96.9345 86.4062 95.625C86.4062 94.3155 86.9264 93.0596 87.8524 92.1337C88.7784 91.2077 90.0342 90.6875 91.3438 90.6875H108.625C109.935 90.6875 111.19 91.2077 112.116 92.1337C113.042 93.0596 113.562 94.3155 113.562 95.625C113.562 96.9345 113.042 98.1904 112.116 99.1164C111.19 100.042 109.935 100.563 108.625 100.563ZM105.335 66L100.071 62.05L107.971 6.75002H119.154L127.622 66H105.335Z" fill="#122F4F"/>
</svg>
