<svg width="134" height="145" viewBox="0 0 134 145" fill="none" xmlns="http://www.w3.org/2000/svg">
<path d="M148.125 100.563H143.188V22.7353L149.156 21.4515C149.803 21.33 150.42 21.0801 150.97 20.7165C151.52 20.3528 151.991 19.8828 152.356 19.3342C152.721 18.7855 152.973 18.1693 153.096 17.5219C153.219 16.8745 153.212 16.2089 153.074 15.5645C152.936 14.9201 152.67 14.3098 152.292 13.7697C151.915 13.2295 151.433 12.7704 150.875 12.4195C150.317 12.0685 149.695 11.8328 149.044 11.7262C148.394 11.6196 147.729 11.6442 147.088 11.7987L8.83812 41.4237C7.6471 41.6807 6.59317 42.369 5.87905 43.3563C5.16492 44.3435 4.84105 45.5599 4.96972 46.7715C5.09838 47.9831 5.67051 49.1044 6.57604 49.9196C7.48158 50.7349 8.65656 51.1865 9.875 51.1876C10.2256 51.187 10.5752 51.1498 10.918 51.0765L14.8125 50.2433V100.563H9.875C8.56549 100.563 7.30962 101.083 6.38366 102.009C5.4577 102.935 4.9375 104.191 4.9375 105.5C4.9375 106.81 5.4577 108.065 6.38366 108.991C7.30962 109.917 8.56549 110.438 9.875 110.438H148.125C149.435 110.438 150.69 109.917 151.616 108.991C152.542 108.065 153.062 106.81 153.062 105.5C153.062 104.191 152.542 102.935 151.616 102.009C150.69 101.083 149.435 100.563 148.125 100.563ZM113.562 100.563H44.4375V90.6876H113.562V100.563ZM113.562 80.8126H44.4375V70.9376H113.562V80.8126Z" fill="#122F4F"/>
</svg>
