<svg width="134" height="145" viewBox="0 0 134 145" fill="none" xmlns="http://www.w3.org/2000/svg">
<path d="M138.25 75.8748C138.25 99.3958 121.172 104.056 107.452 107.796C92.4362 111.894 83.9375 114.949 83.9375 130.187C83.9375 131.497 83.4173 132.753 82.4913 133.679C81.5654 134.605 80.3095 135.125 79 135.125C77.6905 135.125 76.4346 134.605 75.5087 133.679C74.5827 132.753 74.0625 131.497 74.0625 130.187C74.0625 114.949 65.5638 111.894 50.5477 107.796C36.8276 104.056 19.75 99.3958 19.75 75.8748C19.75 74.5653 20.2702 73.3094 21.1962 72.3834C22.1221 71.4575 23.378 70.9373 24.6875 70.9373C25.997 70.9373 27.2529 71.4575 28.1788 72.3834C29.1048 73.3094 29.625 74.5653 29.625 75.8748C29.625 91.1132 38.1237 94.1682 53.1398 98.2663C60.1511 100.18 68.0264 102.34 74.0625 107.117V65.9998H54.3125C53.003 65.9998 51.7471 65.4796 50.8212 64.5536C49.8952 63.6277 49.375 62.3718 49.375 61.0623C49.375 59.7528 49.8952 58.4969 50.8212 57.5709C51.7471 56.645 53.003 56.1248 54.3125 56.1248H74.0625V38.1214C70.0845 36.9354 66.6664 34.3572 64.4331 30.8582C62.1997 27.3592 61.3005 23.1732 61.8998 19.0657C62.4991 14.9581 64.5568 11.2036 67.6968 8.48851C70.8367 5.77344 74.849 4.2793 79 4.2793C83.151 4.2793 87.1633 5.77344 90.3032 8.48851C93.4432 11.2036 95.5009 14.9581 96.1002 19.0657C96.6995 23.1732 95.8003 27.3592 93.5669 30.8582C91.3336 34.3572 87.9155 36.9354 83.9375 38.1214V56.1248H103.688C104.997 56.1248 106.253 56.645 107.179 57.5709C108.105 58.4969 108.625 59.7528 108.625 61.0623C108.625 62.3718 108.105 63.6277 107.179 64.5536C106.253 65.4796 104.997 65.9998 103.688 65.9998H83.9375V107.117C89.9736 102.34 97.8489 100.18 104.86 98.2663C119.876 94.1682 128.375 91.1132 128.375 75.8748C128.375 74.5653 128.895 73.3094 129.821 72.3834C130.747 71.4575 132.003 70.9373 133.312 70.9373C134.622 70.9373 135.878 71.4575 136.804 72.3834C137.73 73.3094 138.25 74.5653 138.25 75.8748Z" fill="#122F4F"/>
</svg>
