<svg width="134" height="145" viewBox="0 0 134 145" fill="none" xmlns="http://www.w3.org/2000/svg">
<path d="M24.9837 23.2534C24.6626 22.3705 24.6001 21.4143 24.8034 20.497C25.0067 19.5798 25.4675 18.7397 26.1317 18.0752L40.9442 3.26268C41.4026 2.80319 41.947 2.43858 42.5465 2.18971C43.1459 1.94083 43.7885 1.81258 44.4375 1.81228C44.5999 1.80322 44.7627 1.80322 44.9251 1.81228C45.652 1.88385 46.3541 2.11584 46.9806 2.49152C47.6071 2.8672 48.1424 3.37721 48.548 3.98479L75.7474 44.7932L88.875 31.6903V16.6248C88.8756 15.317 89.395 14.0629 90.3192 13.1377C90.3192 13.1377 98.9598 4.46001 100.12 3.33674C100.602 2.8317 101.188 2.43601 101.836 2.17642C103.044 1.68421 104.398 1.69031 105.602 2.19337C106.806 2.69643 107.762 3.65557 108.261 4.86119L108.298 4.95377L117.371 27.6416L140.102 36.7327C140.86 37.0361 141.531 37.5228 142.055 38.1493C142.579 38.7758 142.939 39.5224 143.104 40.3224C143.268 41.1224 143.232 41.9507 142.998 42.7331C142.763 43.5155 142.339 44.2276 141.762 44.8056L131.887 54.6806C131.426 55.1411 130.878 55.5059 130.275 55.7538C129.673 56.0016 129.027 56.1277 128.375 56.1248H113.316L100.188 69.2524L140.99 96.458C141.599 96.8631 142.11 97.3983 142.486 98.0249C142.863 98.6516 143.096 99.354 143.168 100.082C143.24 100.809 143.149 101.543 142.903 102.232C142.657 102.92 142.261 103.545 141.743 104.062L126.931 118.874C126.266 119.538 125.426 119.999 124.509 120.203C123.592 120.406 122.635 120.343 121.753 120.022L68.7115 100.735L49.2516 120.195C46.0105 123.436 41.6147 125.257 37.0312 125.257C34.7617 125.257 32.5144 124.81 30.4177 123.941C28.3209 123.073 26.4157 121.8 24.8109 120.195C23.2061 118.59 21.9331 116.685 21.0646 114.588C20.1961 112.492 19.7491 110.244 19.7491 107.975C19.7491 105.705 20.1961 103.458 21.0646 101.361C21.9331 99.2644 23.2061 97.3592 24.8109 95.7544L44.2709 76.2945L24.9837 23.2534Z" fill="#122F4F"/>
</svg>
