<svg width="126" height="137" viewBox="0 0 126 137" fill="none" xmlns="http://www.w3.org/2000/svg">
<path d="M135.938 118.25H121.875V5.75H126.562C127.806 5.75 128.998 5.25614 129.877 4.37706C130.756 3.49799 131.25 2.3057 131.25 1.0625C131.25 -0.180702 130.756 -1.37299 129.877 -2.25206C128.998 -3.13114 127.806 -3.625 126.562 -3.625H23.4375C22.1943 -3.625 21.002 -3.13114 20.1229 -2.25206C19.2439 -1.37299 18.75 -0.180702 18.75 1.0625C18.75 2.3057 19.2439 3.49799 20.1229 4.37706C21.002 5.25614 22.1943 5.75 23.4375 5.75H28.125V118.25H14.0625C12.8193 118.25 11.627 118.744 10.7479 119.623C9.86886 120.502 9.375 121.694 9.375 122.938C9.375 124.181 9.86886 125.373 10.7479 126.252C11.627 127.131 12.8193 127.625 14.0625 127.625H135.938C137.181 127.625 138.373 127.131 139.252 126.252C140.131 125.373 140.625 124.181 140.625 122.938C140.625 121.694 140.131 120.502 139.252 119.623C138.373 118.744 137.181 118.25 135.938 118.25ZM51.5625 19.8125H65.625C66.8682 19.8125 68.0605 20.3064 68.9396 21.1854C69.8186 22.0645 70.3125 23.2568 70.3125 24.5C70.3125 25.7432 69.8186 26.9355 68.9396 27.8146C68.0605 28.6936 66.8682 29.1875 65.625 29.1875H51.5625C50.3193 29.1875 49.127 28.6936 48.2479 27.8146C47.3689 26.9355 46.875 25.7432 46.875 24.5C46.875 23.2568 47.3689 22.0645 48.2479 21.1854C49.127 20.3064 50.3193 19.8125 51.5625 19.8125ZM51.5625 43.25H65.625C66.8682 43.25 68.0605 43.7439 68.9396 44.6229C69.8186 45.502 70.3125 46.6943 70.3125 47.9375C70.3125 49.1807 69.8186 50.373 68.9396 51.2521C68.0605 52.1311 66.8682 52.625 65.625 52.625H51.5625C50.3193 52.625 49.127 52.1311 48.2479 51.2521C47.3689 50.373 46.875 49.1807 46.875 47.9375C46.875 46.6943 47.3689 45.502 48.2479 44.6229C49.127 43.7439 50.3193 43.25 51.5625 43.25ZM46.875 71.375C46.875 70.1318 47.3689 68.9395 48.2479 68.0604C49.127 67.1814 50.3193 66.6875 51.5625 66.6875H65.625C66.8682 66.6875 68.0605 67.1814 68.9396 68.0604C69.8186 68.9395 70.3125 70.1318 70.3125 71.375C70.3125 72.6182 69.8186 73.8105 68.9396 74.6896C68.0605 75.5686 66.8682 76.0625 65.625 76.0625H51.5625C50.3193 76.0625 49.127 75.5686 48.2479 74.6896C47.3689 73.8105 46.875 72.6182 46.875 71.375ZM89.0625 118.25H60.9375V94.8125H89.0625V118.25ZM98.4375 76.0625H84.375C83.1318 76.0625 81.9395 75.5686 81.0604 74.6896C80.1814 73.8105 79.6875 72.6182 79.6875 71.375C79.6875 70.1318 80.1814 68.9395 81.0604 68.0604C81.9395 67.1814 83.1318 66.6875 84.375 66.6875H98.4375C99.6807 66.6875 100.873 67.1814 101.752 68.0604C102.631 68.9395 103.125 70.1318 103.125 71.375C103.125 72.6182 102.631 73.8105 101.752 74.6896C100.873 75.5686 99.6807 76.0625 98.4375 76.0625ZM98.4375 52.625H84.375C83.1318 52.625 81.9395 52.1311 81.0604 51.2521C80.1814 50.373 79.6875 49.1807 79.6875 47.9375C79.6875 46.6943 80.1814 45.502 81.0604 44.6229C81.9395 43.7439 83.1318 43.25 84.375 43.25H98.4375C99.6807 43.25 100.873 43.7439 101.752 44.6229C102.631 45.502 103.125 46.6943 103.125 47.9375C103.125 49.1807 102.631 50.373 101.752 51.2521C100.873 52.1311 99.6807 52.625 98.4375 52.625ZM98.4375 29.1875H84.375C83.1318 29.1875 81.9395 28.6936 81.0604 27.8146C80.1814 26.9355 79.6875 25.7432 79.6875 24.5C79.6875 23.2568 80.1814 22.0645 81.0604 21.1854C81.9395 20.3064 83.1318 19.8125 84.375 19.8125H98.4375C99.6807 19.8125 100.873 20.3064 101.752 21.1854C102.631 22.0645 103.125 23.2568 103.125 24.5C103.125 25.7432 102.631 26.9355 101.752 27.8146C100.873 28.6936 99.6807 29.1875 98.4375 29.1875Z" fill="#122F4F"/>
</svg>
