<svg width="134" height="145" viewBox="0 0 134 145" fill="none" xmlns="http://www.w3.org/2000/svg">
<path d="M78.8335 115.375H69.1251V88.2188C69.1251 87.564 68.865 86.9361 68.402 86.4731C67.939 86.0101 67.3111 85.75 66.6564 85.75H27.1564C26.5016 85.75 25.8737 86.0101 25.4107 86.4731C24.9477 86.9361 24.6876 87.564 24.6876 88.2188V115.375H14.9792C13.7029 115.355 12.4664 115.819 11.5191 116.675C10.5718 117.531 9.98431 118.714 9.87511 119.985C9.83026 120.661 9.92476 121.338 10.1527 121.975C10.3807 122.613 10.7373 123.196 11.2003 123.69C11.6634 124.184 12.223 124.577 12.8444 124.845C13.4658 125.114 14.1357 125.251 14.8126 125.25H79.0001C79.677 125.251 80.3469 125.114 80.9683 124.845C81.5897 124.577 82.1494 124.184 82.6124 123.69C83.0754 123.196 83.432 122.613 83.66 121.975C83.888 121.338 83.9825 120.661 83.9376 119.985C83.8284 118.714 83.2409 117.531 82.2936 116.675C81.3463 115.819 80.1098 115.355 78.8335 115.375Z" fill="#122F4F"/>
<path d="M147.958 36.375H67.2365L53.7942 9.47797C53.3837 8.65766 52.7528 7.96791 51.9723 7.48607C51.1917 7.00423 50.2924 6.74934 49.3751 6.75H29.6251C28.3156 6.75 27.0597 7.2702 26.1338 8.19616C25.2078 9.12212 24.6876 10.378 24.6876 11.6875V36.375H14.9792C13.7029 36.3547 12.4664 36.8192 11.5191 37.6749C10.5718 38.5305 9.98431 39.7136 9.87511 40.9854C9.83026 41.6608 9.92476 42.3382 10.1527 42.9755C10.3807 43.6128 10.7373 44.1965 11.2003 44.6902C11.6634 45.1839 12.223 45.5771 12.8444 45.8455C13.4658 46.1138 14.1357 46.2515 14.8126 46.25H24.6876V73.4062C24.6876 74.061 24.9477 74.6889 25.4107 75.1519C25.8737 75.6149 26.5016 75.875 27.1564 75.875H66.6564C67.3111 75.875 67.939 75.6149 68.402 75.1519C68.865 74.6889 69.1251 74.061 69.1251 73.4062V46.25H128.375V100.562H118.5V95.7916C118.516 94.5178 118.049 93.2852 117.194 92.3408C116.339 91.3965 115.159 90.8103 113.89 90.6998C113.214 90.655 112.537 90.7495 111.9 90.9775C111.262 91.2055 110.679 91.562 110.185 92.0251C109.691 92.4881 109.298 93.0477 109.03 93.6691C108.761 94.2905 108.624 94.9605 108.625 95.6373V100.575C108.625 103.194 109.666 105.706 111.517 107.558C113.369 109.409 115.881 110.45 118.5 110.45H128.375C130.994 110.45 133.506 109.409 135.358 107.558C137.21 105.706 138.25 103.194 138.25 100.575V46.25H148.125C148.802 46.2515 149.472 46.1138 150.093 45.8455C150.715 45.5771 151.274 45.1839 151.737 44.6902C152.2 44.1965 152.557 43.6128 152.785 42.9755C153.013 42.3382 153.107 41.6608 153.063 40.9854C152.953 39.7136 152.366 38.5305 151.419 37.6749C150.471 36.8192 149.235 36.3547 147.958 36.375ZM34.5626 36.375V16.625H46.3262L56.2012 36.375H34.5626Z" fill="#122F4F"/>
</svg>
