<svg width="126" height="137" viewBox="0 0 126 137" fill="none" xmlns="http://www.w3.org/2000/svg">
<path d="M18.7499 47.9375C18.7499 46.6943 19.2438 45.502 20.1229 44.6229C21.002 43.7439 22.1942 43.25 23.4374 43.25H32.8124C34.0556 43.25 35.2479 43.7439 36.127 44.6229C37.0061 45.502 37.4999 46.6943 37.4999 47.9375C37.4999 49.1807 37.0061 50.373 36.127 51.2521C35.2479 52.1311 34.0556 52.625 32.8124 52.625H23.4374C22.1942 52.625 21.002 52.1311 20.1229 51.2521C19.2438 50.373 18.7499 49.1807 18.7499 47.9375ZM41.8535 21.4238C42.733 22.3034 43.926 22.7975 45.1699 22.7975C46.4138 22.7975 47.6067 22.3034 48.4863 21.4238C49.3658 20.5443 49.86 19.3513 49.86 18.1074C49.86 16.8635 49.3658 15.6706 48.4863 14.791L41.8535 8.16406C40.9672 7.32209 39.7872 6.85963 38.5648 6.87528C37.3425 6.89093 36.1747 7.38345 35.3103 8.24784C34.4459 9.11222 33.9534 10.2801 33.9377 11.5024C33.9221 12.7247 34.3845 13.9048 35.2265 14.791L41.8535 21.4238ZM74.9999 10.4375C76.2431 10.4375 77.4354 9.94364 78.3145 9.06456C79.1936 8.18549 79.6874 6.9932 79.6874 5.75V-3.625C79.6874 -4.8682 79.1936 -6.06049 78.3145 -6.93956C77.4354 -7.81864 76.2431 -8.3125 74.9999 -8.3125C73.7567 -8.3125 72.5645 -7.81864 71.6854 -6.93956C70.8063 -6.06049 70.3124 -4.8682 70.3124 -3.625V5.75C70.3124 6.9932 70.8063 8.18549 71.6854 9.06456C72.5645 9.94364 73.7567 10.4375 74.9999 10.4375ZM104.83 22.7949C105.446 22.7954 106.056 22.6746 106.625 22.4393C107.194 22.2041 107.711 21.859 108.146 21.4238L114.773 14.791C115.615 13.9048 116.078 12.7247 116.062 11.5024C116.047 10.2801 115.554 9.11222 114.69 8.24784C113.825 7.38345 112.657 6.89093 111.435 6.87528C110.213 6.85963 109.033 7.32209 108.146 8.16406L101.514 14.791C100.857 15.4466 100.41 16.2822 100.229 17.1919C100.048 18.1017 100.141 19.0448 100.496 19.9018C100.851 20.7587 101.452 21.4911 102.224 22.0061C102.995 22.5211 103.902 22.7957 104.83 22.7949ZM112.5 47.9375C112.5 49.1807 112.994 50.373 113.873 51.2521C114.752 52.1311 115.944 52.625 117.187 52.625H126.562C127.806 52.625 128.998 52.1311 129.877 51.2521C130.756 50.373 131.25 49.1807 131.25 47.9375C131.25 46.6943 130.756 45.502 129.877 44.6229C128.998 43.7439 127.806 43.25 126.562 43.25H117.187C115.944 43.25 114.752 43.7439 113.873 44.6229C112.994 45.502 112.5 46.6943 112.5 47.9375ZM51.5624 52.625C52.8056 52.625 53.9979 52.1311 54.877 51.2521C55.7561 50.373 56.2499 49.1807 56.2499 47.9375C56.2499 42.9647 58.2254 38.1956 61.7417 34.6792C65.258 31.1629 70.0271 29.1875 74.9999 29.1875C79.9727 29.1875 84.7419 31.1629 88.2582 34.6792C91.7745 38.1956 93.7499 42.9647 93.7499 47.9375C93.7499 49.1807 94.2438 50.373 95.1229 51.2521C96.0019 52.1311 97.1942 52.625 98.4374 52.625C99.6806 52.625 100.873 52.1311 101.752 51.2521C102.631 50.373 103.125 49.1807 103.125 47.9375C103.125 40.4783 100.162 33.3246 94.8873 28.0501C89.6129 22.7757 82.4592 19.8125 74.9999 19.8125C67.5407 19.8125 60.387 22.7757 55.1126 28.0501C49.8381 33.3246 46.8749 40.4783 46.8749 47.9375C46.8749 49.1807 47.3688 50.373 48.2479 51.2521C49.127 52.1311 50.3192 52.625 51.5624 52.625ZM83.9062 66.6875H66.0937C65.5585 66.6873 65.0393 66.8703 64.6225 67.2061C64.2057 67.5419 63.9164 68.0102 63.8027 68.5332L60.1288 85.4375H89.871L86.1972 68.5332C86.0835 68.0102 85.7942 67.5419 85.3774 67.2061C84.9606 66.8703 84.4414 66.6873 83.9062 66.6875ZM18.6035 95.9844L9.96088 111.254C9.46603 112.128 9.26498 113.138 9.38734 114.135C9.50971 115.131 9.94903 116.063 10.6406 116.791C11.0967 117.26 11.6437 117.632 12.2481 117.883C12.8526 118.133 13.5018 118.258 14.1562 118.25H41.5136C42.0488 118.25 42.568 118.067 42.9848 117.731C43.4016 117.396 43.6909 116.927 43.8046 116.404L48.4921 94.8125H20.6425C20.2295 94.8109 19.8234 94.9184 19.4654 95.1242C19.1073 95.33 18.81 95.6267 18.6035 95.9844ZM140.016 111.219L131.396 95.9844C131.19 95.6267 130.893 95.33 130.535 95.1242C130.176 94.9184 129.77 94.8109 129.357 94.8125H101.502L106.189 116.404C106.303 116.927 106.592 117.396 107.009 117.731C107.426 118.067 107.945 118.25 108.48 118.25H135.797C136.451 118.258 137.1 118.133 137.705 117.883C138.309 117.632 138.856 117.26 139.312 116.791C140.011 116.068 140.459 115.14 140.59 114.142C140.721 113.145 140.528 112.133 140.039 111.254L140.016 111.219ZM123.451 81.9219L116.174 69.0312C115.763 68.3059 115.167 67.7031 114.446 67.285C113.725 66.8668 112.906 66.6484 112.072 66.6523H98.2968C97.9467 66.6522 97.601 66.7306 97.2851 66.8816C96.9692 67.0326 96.6911 67.2525 96.4714 67.5251C96.2516 67.7977 96.0957 68.1161 96.0152 68.4568C95.9346 68.7975 95.9314 69.152 96.0058 69.4941L99.4628 85.4023H121.406C121.814 85.4015 122.214 85.2944 122.568 85.0916C122.921 84.8888 123.216 84.5973 123.422 84.2459C123.629 83.8945 123.74 83.4953 123.745 83.0877C123.75 82.6802 123.649 82.2783 123.451 81.9219ZM51.7031 66.6875H37.9101C37.0767 66.6836 36.2573 66.902 35.5363 67.3201C34.8154 67.7383 34.219 68.3411 33.8085 69.0664L26.5488 81.9219C26.3424 82.2793 26.2341 82.6849 26.2347 83.0976C26.2354 83.5103 26.345 83.9155 26.5525 84.2722C26.76 84.629 27.0581 84.9246 27.4165 85.1292C27.7749 85.3338 28.181 85.4402 28.5937 85.4375H50.537L53.9941 69.5293C54.0685 69.1872 54.0653 68.8327 53.9847 68.4919C53.9041 68.1512 53.7483 67.8328 53.5285 67.5602C53.3087 67.2877 53.0307 67.0678 52.7148 66.9167C52.3989 66.7657 52.0532 66.6874 51.7031 66.6875ZM91.9101 94.8125H58.0898L53.6132 115.408C53.5388 115.75 53.542 116.105 53.6226 116.446C53.7032 116.786 53.859 117.105 54.0788 117.377C54.2986 117.65 54.5766 117.87 54.8925 118.021C55.2084 118.172 55.5541 118.25 55.9042 118.25H94.0956C94.4458 118.25 94.7915 118.172 95.1074 118.021C95.4233 117.87 95.7013 117.65 95.9211 117.377C96.1408 117.105 96.2967 116.786 96.3773 116.446C96.4579 116.105 96.4611 115.75 96.3867 115.408L91.9101 94.8125Z" fill="#122F4F"/>
</svg>
