<svg width="145" height="134" viewBox="0 0 145 134" fill="none" xmlns="http://www.w3.org/2000/svg">
<path d="M142.157 63.0606C140.542 61.8162 138.691 60.9135 136.717 60.4074C134.742 59.9013 132.685 59.8023 130.671 60.1166C142.262 48.4147 148.125 36.7807 148.125 25.3751C148.125 9.03814 134.985 -4.24991 118.833 -4.24991C114.548 -4.27682 110.308 -3.36533 106.412 -1.57941C102.516 0.206499 99.0582 2.82354 96.2812 6.08798C93.5043 2.82354 90.0465 0.206499 86.1505 -1.57941C82.2546 -3.36533 78.0149 -4.27682 73.7292 -4.24991C57.5774 -4.24991 44.4375 9.03814 44.4375 25.3751C44.4375 32.1642 46.4372 38.7619 50.6464 45.7423C47.199 46.6157 44.0529 48.4073 41.5429 50.9267L27.5821 64.8751H9.875C7.25599 64.8751 4.74424 65.9155 2.89232 67.7674C1.0404 69.6193 0 72.1311 0 74.7501L0 99.4376C0 102.057 1.0404 104.568 2.89232 106.42C4.74424 108.272 7.25599 109.313 9.875 109.313H74.0625C74.4662 109.313 74.8684 109.263 75.2598 109.164L114.76 99.2895C115.012 99.2295 115.257 99.1469 115.494 99.0426L139.484 88.8343L139.756 88.7109C142.062 87.5588 144.036 85.8387 145.493 83.7126C146.95 81.5866 147.842 79.1246 148.085 76.5586C148.327 73.9926 147.913 71.4071 146.88 69.0456C145.847 66.6841 144.23 64.6244 142.181 63.0606H142.157ZM135.429 79.8172L111.976 89.8033L73.4453 99.4376H34.5625V71.8555L48.5295 57.8947C49.4431 56.9737 50.5307 56.2436 51.7291 55.7466C52.9274 55.2497 54.2126 54.9959 55.5098 55.0001H86.4062C88.3705 55.0001 90.2543 55.7804 91.6433 57.1693C93.0322 58.5583 93.8125 60.4421 93.8125 62.4063C93.8125 64.3706 93.0322 66.2544 91.6433 67.6433C90.2543 69.0323 88.3705 69.8126 86.4062 69.8126H69.125C67.8155 69.8126 66.5596 70.3328 65.6337 71.2588C64.7077 72.1847 64.1875 73.4406 64.1875 74.7501C64.1875 76.0596 64.7077 77.3155 65.6337 78.2414C66.5596 79.1674 67.8155 79.6876 69.125 79.6876H88.875C89.2466 79.6865 89.6171 79.6452 89.9798 79.5641L131.331 70.0533L131.523 70.0039C132.785 69.6535 134.132 69.7823 135.305 70.3655C136.479 70.9487 137.394 71.9451 137.877 73.1631C138.36 74.381 138.375 75.7344 137.919 76.9629C137.464 78.1913 136.571 79.2079 135.411 79.8172H135.429Z" fill="#122F4F"/>
</svg>
