<svg width="13" height="12" viewBox="0 0 13 12" fill="none" xmlns="http://www.w3.org/2000/svg">
<path d="M5.56215 1.03451C5.88431 0.163889 7.11569 0.163888 7.43785 1.03451L8.36611 3.54308C8.46739 3.8168 8.6832 4.03261 8.95692 4.13389L11.4655 5.06215C12.3361 5.38431 12.3361 6.61569 11.4655 6.93785L8.95692 7.86611C8.6832 7.96739 8.46739 8.1832 8.36611 8.45692L7.43785 10.9655C7.11569 11.8361 5.88431 11.8361 5.56215 10.9655L4.63389 8.45692C4.53261 8.1832 4.3168 7.96739 4.04308 7.86611L1.53451 6.93785C0.663889 6.61569 0.663888 5.38431 1.53451 5.06215L4.04308 4.13389C4.3168 4.03261 4.53261 3.8168 4.63389 3.54308L5.56215 1.03451Z" fill="#0362A1"/>
</svg>
