<svg width="40" height="40" viewBox="0 0 40 40" fill="none" xmlns="http://www.w3.org/2000/svg">
<path d="M37.0002 29.3892L23.3361 5.65948C22.9947 5.07811 22.5072 4.59607 21.9221 4.26113C21.337 3.9262 20.6744 3.75 20.0002 3.75C19.326 3.75 18.6635 3.9262 18.0783 4.26113C17.4932 4.59607 17.0057 5.07811 16.6643 5.65948L3.00021 29.3892C2.67167 29.9515 2.49854 30.591 2.49854 31.2423C2.49854 31.8935 2.67167 32.5331 3.00021 33.0954C3.33729 33.6803 3.82391 34.165 4.41015 34.4997C4.99639 34.8344 5.66112 35.0071 6.33615 35.0001H33.6643C34.3388 35.0066 35.0029 34.8336 35.5885 34.4989C36.1741 34.1642 36.6603 33.6798 36.9971 33.0954C37.3261 32.5334 37.4998 31.894 37.5003 31.2427C37.5009 30.5915 37.3283 29.9518 37.0002 29.3892ZM18.7502 16.2501C18.7502 15.9186 18.8819 15.6006 19.1163 15.3662C19.3507 15.1318 19.6687 15.0001 20.0002 15.0001C20.3317 15.0001 20.6497 15.1318 20.8841 15.3662C21.1185 15.6006 21.2502 15.9186 21.2502 16.2501V22.5001C21.2502 22.8316 21.1185 23.1496 20.8841 23.384C20.6497 23.6184 20.3317 23.7501 20.0002 23.7501C19.6687 23.7501 19.3507 23.6184 19.1163 23.384C18.8819 23.1496 18.7502 22.8316 18.7502 22.5001V16.2501ZM20.0002 30.0001C19.6294 30.0001 19.2669 29.8901 18.9585 29.6841C18.6502 29.4781 18.4099 29.1852 18.2679 28.8426C18.126 28.5 18.0889 28.123 18.1612 27.7593C18.2336 27.3956 18.4122 27.0615 18.6744 26.7993C18.9366 26.5371 19.2707 26.3585 19.6344 26.2861C19.9981 26.2138 20.3751 26.2509 20.7177 26.3928C21.0604 26.5347 21.3532 26.7751 21.5592 27.0834C21.7652 27.3918 21.8752 27.7543 21.8752 28.1251C21.8752 28.6224 21.6777 29.0993 21.326 29.4509C20.9744 29.8026 20.4975 30.0001 20.0002 30.0001Z" fill="#1769B2"/>
</svg>
