<svg width="40" height="40" viewBox="0 0 40 40" fill="none" xmlns="http://www.w3.org/2000/svg">
<path d="M36.2498 14.9999C36.2517 16.8709 35.7869 18.7128 34.8975 20.3589C34.0082 22.0049 32.7223 23.4032 31.1564 24.4271C29.5905 25.451 27.7939 26.0682 25.9293 26.2227C24.0648 26.3773 22.1911 26.0645 20.4779 25.3124L12.3435 34.7218C12.3248 34.7437 12.3029 34.7671 12.2826 34.7874C11.3448 35.7252 10.0729 36.2521 8.74667 36.2521C7.42043 36.2521 6.14852 35.7252 5.21073 34.7874C4.27294 33.8496 3.74609 32.5777 3.74609 31.2515C3.74609 29.9253 4.27294 28.6533 5.21073 27.7156C5.2326 27.6952 5.25448 27.6734 5.27791 27.6546L14.6873 19.5218C13.8443 17.5934 13.5585 15.4673 13.8625 13.3847C14.1665 11.3022 15.048 9.34645 16.4071 7.73945C17.7662 6.13245 19.5484 4.93848 21.5516 4.29298C23.5548 3.64747 25.6988 3.57626 27.7404 4.08743C27.9509 4.14018 28.144 4.24681 28.3007 4.39682C28.4575 4.54683 28.5725 4.73506 28.6345 4.94299C28.6964 5.15093 28.7032 5.37142 28.6541 5.58276C28.605 5.79411 28.5017 5.98903 28.3545 6.14837L22.4998 12.4999L23.3842 16.6171L27.4998 17.4999L33.8514 11.6374C34.0107 11.4902 34.2056 11.3869 34.417 11.3378C34.6283 11.2887 34.8488 11.2955 35.0567 11.3574C35.2647 11.4194 35.4529 11.5344 35.6029 11.6912C35.7529 11.8479 35.8595 12.041 35.9123 12.2515C36.1366 13.1504 36.25 14.0734 36.2498 14.9999Z" fill="#1769B2"/>
</svg>
